<?xml version="1.0" encoding="utf-8"?>
<!-- Generator: Adobe Illustrator 19.2.0, SVG Export Plug-In . SVG Version: 6.00 Build 0)  -->
<svg version="1.1" id="Layer_1" xmlns="http://www.w3.org/2000/svg" xmlns:xlink="http://www.w3.org/1999/xlink" x="0px" y="0px"
	 viewBox="0 0 76.7 54.1" style="enable-background:new 0 0 76.7 54.1;" xml:space="preserve">
<style type="text/css">
	.st0{fill:#E64F64;}
</style>
<g>
	<path class="st0" d="M34.2,31.8L34.2,31.8L34.2,31.8c0.6,0,6.1-0.1,10.5-5.2c4.5-5.3,5.6-13.7,5.7-17.6c0.1-3.9,0.1-6,2.9-6
		c1.7-0.1,3.6,2.4,3.7,4.4c0.2,2.4,1.3,15.9,1.3,15.9c0,0.5,0.5,0.9,1,0.9c0,0,10.4,0,12,0c0.7,0,2.1,1.5,2.1,2.6c0,0.1,0,0.2,0,0.3
		c-0.2,1.3-1.3,1.8-1.5,3.5c0,0.2,0,0.4,0.1,0.6c0.3,1,0.7,1.7,0.7,2.2c0,0.2,0,0.4-0.2,0.7c-0.3,1.1-2.4,1.9-2.7,4
		c0,0.1,0,0.2,0,0.3v0c0.1,0.6,0.2,1.2,0.2,1.7c0,0.6-0.1,0.9-0.3,1c-0.4,0.5-1.9,1-1.9,2.7c0,0.3,0,0.6,0.1,0.9
		c0.1,0.6,0.3,1.3,0.3,1.9c-0.2,1.3-0.1,2.1-3.2,2.3c-5.1,0-20.6,0-20.6,0c-0.6,0-1,0.4-1,1s0.4,1,1,1c0,0,15.5,0,20.6,0
		c3.8,0,5.2-2.3,5.2-4.3c0-1-0.2-1.8-0.3-2.4c0-0.2-0.1-0.4-0.1-0.5c0-0.4,0.2-0.4,1.2-1.2c0.8-0.7,0.9-1.7,0.9-2.5
		c0-0.7-0.1-1.4-0.2-2v0l0,0h0v0l0,0h0c-0.3-0.1,1.5-1.4,2.5-3.2h0c0.2-0.5,0.4-1,0.3-1.5c0-1.3-0.7-2.2-0.8-2.7h0l0-0.1
		c-0.2-0.1,0.9-1.2,1.4-3.1c0.1-0.2,0.1-0.5,0.1-0.7c-0.1-2.3-1.8-4.5-4.1-4.6c-1.7,0-12,0-12,0v1l1-0.1c0,0-1.1-13.5-1.3-15.9
		c-0.3-2.8-2.3-6.1-5.7-6.2c-4.7,0-4.9,4.5-4.9,8c0,3.6-1.2,11.8-5.2,16.3c-3.8,4.4-8.6,4.5-8.9,4.5h0l0,0c-0.6,0-1,0.4-1,1
		C33.3,31.4,33.7,31.8,34.2,31.8z"/>
	<path class="st0" d="M25.4,25.8v1h8v-0.1h-0.1l0.1,0.1v-0.1h-0.1V50h0.1v-0.1L33.3,50h0.1v-0.1h-8V50h0.1l-0.1-0.1V50h0.1V26.7
		h-0.1v0.1l0.1-0.1h-0.1v0.1V25.8v-1c-1,0-1.9,0.8-1.9,1.9V50c0,1,0.8,1.9,1.9,1.9h8c1,0,1.9-0.8,1.9-1.9V26.7c0-1-0.8-1.9-1.9-1.9
		h-8V25.8z"/>
	<path class="st0" d="M26.4,29.1v13.2c0,0.6,0.4,1,1,1c0.6,0,1-0.4,1-1V29.1c0-0.6-0.4-1-1-1C26.8,28.1,26.4,28.6,26.4,29.1"/>
	<path class="st0" d="M40.7,46.3H52c0.6,0,1-0.4,1-1c0-0.6-0.4-1-1-1H40.7c-0.6,0-1,0.4-1,1C39.7,45.9,40.2,46.3,40.7,46.3"/>
	<path class="st0" d="M28,15.7L28,15.7C28,15.7,27.9,15.7,28,15.7c-0.4,0-4.1,0.1-7,3.5c-3,3.6-3.7,9-3.7,11.6
		c-0.1,2.6-0.1,3.5-1.5,3.5c-0.8,0.1-2-1.4-2.1-2.5c-0.1-1.5-0.8-10.2-0.8-10.2c0-0.5-0.5-0.9-1-0.9c0,0-1.7,0-3.5,0
		c-1.8,0-3.7,0-4.3,0c-0.2,0-1-0.8-1-1.3l0-0.1c0.1-0.7,0.8-1,0.9-2.4c0-0.2,0-0.3-0.1-0.5v0c-0.2-0.8-0.5-1.1-0.4-1.3
		c0-0.1,0-0.1,0.1-0.3c0.1-0.6,1.5-1,1.8-2.7c0-0.1,0-0.2,0-0.3v0c-0.1-0.4-0.1-0.7-0.1-1c0-0.3,0.1-0.3,0.1-0.4
		c0.2-0.2,1.3-0.6,1.3-2c0-0.2,0-0.4-0.1-0.7v0C6.4,7.2,6.3,6.8,6.3,6.4C6.4,5.7,6.1,5.5,8,5.3c3.3,0,13.3,0,13.3,0c0.6,0,1-0.4,1-1
		c0-0.6-0.4-1-1-1c0,0-10,0-13.3,0c-2.6,0-3.7,1.7-3.7,3.1c0,0.7,0.1,1.3,0.2,1.6l0,0.2c0,0,0.1,0.1-0.7,0.5
		c-0.6,0.6-0.7,1.3-0.7,1.9c0,0.5,0.1,1,0.1,1.3v0l0.4-0.1H3.3l0,0.1l0.4-0.1H3.3c0.2,0.1-0.8,0.7-1.6,1.9c-0.2,0.4-0.3,0.8-0.3,1.1
		c0,1,0.5,1.6,0.5,1.8v0l0.2-0.1H2l0,0.1l0.2-0.1H2c0.2,0-0.5,0.6-0.9,1.9l0,0C1,18.9,1,19,1,19.2c0.1,1.7,1.2,3.2,3,3.3
		c1.1,0,7.8,0,7.8,0v-1l-1,0.1c0,0,0.7,8.7,0.8,10.3c0.2,1.9,1.6,4.2,4.1,4.4c3.4,0,3.5-3.3,3.5-5.5c0-2.2,0.8-7.5,3.3-10.3
		c2.3-2.7,5.3-2.8,5.5-2.8v-0.2l0,0.2h0v-0.2l0,0.2h0c0.6,0,1-0.4,1-1C29,16.1,28.5,15.7,28,15.7z"/>
	<path class="st0" d="M33.7,19.9v-1h-5.2v0.4h0.4c0-0.2-0.2-0.4-0.4-0.4v0.4h0.4v-15h-0.4v0.4c0.2,0,0.4-0.2,0.4-0.4h-0.4v0.4h5.2
		V4.3h-0.4c0,0.2,0.2,0.4,0.4,0.4V4.3h-0.4v15h0.4v-0.4c-0.2,0-0.4,0.2-0.4,0.4h0.4v-0.4V19.9v1c0.9,0,1.6-0.7,1.6-1.6v-15
		c0-0.9-0.7-1.6-1.6-1.6h-5.2c-0.9,0-1.6,0.7-1.6,1.6v15c0,0.9,0.7,1.6,1.6,1.6h5.2V19.9z"/>
</g>
</svg>
