<?xml version="1.0" encoding="utf-8"?>
<!-- Generator: Adobe Illustrator 19.2.0, SVG Export Plug-In . SVG Version: 6.00 Build 0)  -->
<svg version="1.1" id="Layer_1" xmlns="http://www.w3.org/2000/svg" xmlns:xlink="http://www.w3.org/1999/xlink" x="0px" y="0px"
	 viewBox="0 0 67.2 54.1" style="enable-background:new 0 0 67.2 54.1;" xml:space="preserve">
<style type="text/css">
	.st0{fill:#E64F64;}
</style>
<g>
	<path class="st0" d="M65,2.3v-1H25.8c-0.3,0-0.5,0.1-0.7,0.3c-0.2,0.2-0.3,0.4-0.3,0.7v28.9c0,0.3,0.1,0.5,0.3,0.7
		c0.2,0.2,0.4,0.3,0.7,0.3h22.4l12.7,8.7c0.4,0.2,0.8,0.2,1.2,0c0.3-0.3,0.5-0.7,0.3-1.1l-2.5-7.6h5c0.3,0,0.5-0.1,0.7-0.3
		c0.2-0.2,0.3-0.4,0.3-0.7V2.3c0-0.3-0.1-0.5-0.3-0.7c-0.2-0.2-0.4-0.3-0.7-0.3V2.3h-1v27.9h-5.4c-0.3,0-0.6,0.2-0.8,0.4
		c-0.2,0.3-0.2,0.6-0.1,0.9l2,6.1l-10.6-7.2l-0.6-0.2H26.8V3.3H65V2.3h-1H65z"/>
	<path class="st0" d="M8.7,36.3h16.2c0.6,0,1-0.4,1-1c0-0.6-0.4-1-1-1H8.7c-0.6,0-1,0.4-1,1C7.7,35.8,8.2,36.3,8.7,36.3"/>
	<path class="st0" d="M8.8,26.3h12.4c0.6,0,1-0.4,1-1c0-0.6-0.4-1-1-1H8.8c-0.6,0-1,0.4-1,1C7.8,25.8,8.2,26.3,8.8,26.3"/>
	<path class="st0" d="M9.5,21.2h15c0.6,0,1-0.4,1-1c0-0.6-0.4-1-1-1h-15c-0.6,0-1,0.4-1,1C8.5,20.8,8.9,21.2,9.5,21.2"/>
	<path class="st0" d="M31.5,9.2h15c0.6,0,1-0.4,1-1s-0.4-1-1-1h-15c-0.6,0-1,0.4-1,1S30.9,9.2,31.5,9.2"/>
	<path class="st0" d="M43.7,24.2h9.8c0.6,0,1-0.4,1-1c0-0.6-0.4-1-1-1h-9.8c-0.6,0-1,0.4-1,1C42.7,23.8,43.1,24.2,43.7,24.2"/>
	<path class="st0" d="M25.9,29.3H9.3c-0.6,0-1,0.4-1,1s0.4,1,1,1h16.7V29.3z"/>
	<path class="st0" d="M41,31.1v11.1H19.3l-0.6,0.2L8.2,49.6l2-6.1c0.1-0.3,0-0.6-0.1-0.9c-0.2-0.3-0.5-0.4-0.8-0.4H3.8V15.3h22v-2
		h-23c-0.3,0-0.5,0.1-0.7,0.3c-0.2,0.2-0.3,0.4-0.3,0.7v28.9c0,0.3,0.1,0.5,0.3,0.7c0.2,0.2,0.4,0.3,0.7,0.3h5l-2.5,7.6
		c-0.1,0.4,0,0.9,0.3,1.1s0.8,0.3,1.2,0l12.7-8.7H42c0.3,0,0.5-0.1,0.7-0.3c0.2-0.2,0.3-0.4,0.3-0.7V31.1H41z"/>
</g>
</svg>
