<?xml version="1.0" encoding="utf-8"?>
<!-- Generator: Adobe Illustrator 19.2.0, SVG Export Plug-In . SVG Version: 6.00 Build 0)  -->
<svg version="1.1" id="Layer_1" xmlns="http://www.w3.org/2000/svg" xmlns:xlink="http://www.w3.org/1999/xlink" x="0px" y="0px"
	 viewBox="0 0 63.5 54.1" style="enable-background:new 0 0 63.5 54.1;" xml:space="preserve">
<style type="text/css">
	.st0{fill:#E64F64;}
</style>
<g>
	<path class="st0" d="M26.9,12.9l6.2,6.2c0.4,0.4,1,0.4,1.4,0c0.4-0.4,0.4-1,0-1.4l-6.2-6.2c-0.4-0.4-1-0.4-1.4,0
		C26.5,11.9,26.5,12.5,26.9,12.9"/>
	<path class="st0" d="M26.6,2.4l-0.7,0.7l1.1,1.1c0.1,0.1,0.1,0.2,0.1,0.3c0,0.1,0,0.2-0.1,0.3L14.4,17.4c-0.1,0.1-0.2,0.1-0.3,0.1
		c-0.1,0-0.2,0-0.3-0.1l-1.1-1.1c-0.1-0.1-0.1-0.2-0.1-0.3c0-0.1,0-0.2,0.1-0.3L25.2,3.1C25.3,3,25.4,3,25.5,3c0.1,0,0.2,0,0.3,0.1
		L26.6,2.4l0.7-0.7C26.8,1.2,26.1,1,25.5,1c-0.6,0-1.3,0.2-1.7,0.7v0L11.3,14.2c-0.5,0.5-0.7,1.1-0.7,1.7c0,0.6,0.2,1.3,0.7,1.7
		l1.1,1.1c0.5,0.5,1.1,0.7,1.7,0.7c0.6,0,1.3-0.2,1.7-0.7L28.3,6.3c0.5-0.5,0.7-1.1,0.7-1.7c0-0.6-0.2-1.3-0.7-1.7l-1.1-1.1
		L26.6,2.4z"/>
	<path class="st0" d="M48.4,24.3L47.7,25l1.1,1.1v0c0.1,0.1,0.1,0.2,0.1,0.3c0,0.1,0,0.2-0.1,0.3L36.3,39.2
		c-0.1,0.1-0.2,0.1-0.3,0.1c-0.1,0-0.2,0-0.3-0.1l-1.1-1.1c-0.1-0.1-0.1-0.2-0.1-0.3c0-0.1,0-0.2,0.1-0.3L47,25
		c0.1-0.1,0.2-0.1,0.3-0.1c0.1,0,0.2,0,0.3,0.1L48.4,24.3l0.7-0.7c-0.5-0.5-1.1-0.7-1.7-0.7c-0.6,0-1.3,0.2-1.7,0.7L33.1,36.1
		c-0.5,0.5-0.7,1.1-0.7,1.7c0,0.6,0.2,1.3,0.7,1.7l1.1,1.1c0.5,0.5,1.1,0.7,1.7,0.7c0.6,0,1.3-0.2,1.7-0.7l12.5-12.5
		c0.5-0.5,0.7-1.1,0.7-1.7c0-0.6-0.2-1.3-0.7-1.7l-1.1-1.1L48.4,24.3z"/>
	<path class="st0" d="M31.5,47.3v1h28.1c0.4,0,0.8,0.4,0.8,0.8v0.9c0,0.4-0.4,0.8-0.8,0.8H31.5c-0.4,0-0.8-0.4-0.8-0.8v-0.9
		c0-0.4,0.4-0.8,0.8-0.8V47.3v-1c-1.6,0-2.8,1.3-2.8,2.8v0.9c0,1.6,1.3,2.8,2.8,2.8h28.1c1.5,0,2.8-1.3,2.8-2.8v-0.9
		c0-1.6-1.3-2.8-2.8-2.8H31.5V47.3z"/>
	<path class="st0" d="M3.9,45.8L7.1,49c0.4,0.4,1,0.4,1.4,0c0.4-0.4,0.4-1,0-1.4l-3.2-3.2c-0.4-0.4-1-0.4-1.4,0
		C3.5,44.8,3.5,45.4,3.9,45.8"/>
	<g>
		<rect x="23.5" y="14.3" transform="matrix(0.7071 -0.7071 0.7071 0.7071 -12.284 25.3577)" class="st0" width="2" height="26.5"/>
		
			<rect x="35.7" y="2.1" transform="matrix(0.7071 -0.7071 0.7071 0.7071 -7.875092e-02 30.4133)" class="st0" width="2" height="26.5"/>
	</g>
	<path class="st0" d="M25.6,29.1L5.4,49.3c-0.1,0.1-0.2,0.1-0.3,0.1c-0.1,0-0.2,0-0.3-0.1l-1.1-1.1c-0.1-0.1-0.1-0.2-0.1-0.3
		c0-0.1,0-0.2,0.1-0.3l20.2-20.2l-1.4-1.4L2.3,46.1c-0.5,0.5-0.7,1.1-0.7,1.7s0.2,1.3,0.7,1.7l1.1,1.1c0.5,0.5,1.1,0.7,1.7,0.7
		c0.6,0,1.3-0.2,1.7-0.7L27,30.5L25.6,29.1z"/>
</g>
</svg>
