<?xml version="1.0" encoding="utf-8"?>
<!-- Generator: Adobe Illustrator 19.2.0, SVG Export Plug-In . SVG Version: 6.00 Build 0)  -->
<svg version="1.1" id="Layer_1" xmlns="http://www.w3.org/2000/svg" xmlns:xlink="http://www.w3.org/1999/xlink" x="0px" y="0px"
	 viewBox="0 0 61.4 54.1" style="enable-background:new 0 0 61.4 54.1;" xml:space="preserve">
<style type="text/css">
	.st0{fill:#E64F64;}
</style>
<g>
	<path class="st0" d="M25.1,3.9c0.4,0,0.9,0,1.4,0c0.6,0,1-0.4,1-1s-0.4-1-1-1c-0.5,0-1,0-1.5,0C24.4,2,24,2.5,24,3
		C24.1,3.6,24.5,4,25.1,3.9z M16.9,5.9c0.4-0.2,0.9-0.4,1.4-0.6c0.5-0.2,0.8-0.8,0.6-1.3c-0.2-0.5-0.8-0.8-1.3-0.6
		c-0.5,0.2-1,0.4-1.5,0.6c-0.5,0.2-0.7,0.8-0.5,1.3C15.9,5.9,16.4,6.1,16.9,5.9z M11.3,9.5c0.5-0.4,1-0.8,1.5-1.2
		C13.2,8,13.3,7.4,13,6.9c-0.3-0.4-0.9-0.5-1.4-0.2C11.1,7.1,10.5,7.5,10,8C9.6,8.3,9.5,9,9.9,9.4C10.2,9.8,10.9,9.9,11.3,9.5z
		 M6.4,15.3c0.2-0.4,0.5-0.8,0.8-1.2c0.3-0.5,0.2-1.1-0.3-1.4c-0.5-0.3-1.1-0.2-1.4,0.3c-0.3,0.4-0.6,0.8-0.8,1.3
		c-0.3,0.5-0.1,1.1,0.3,1.4C5.5,15.9,6.1,15.7,6.4,15.3z M4,21c0.1-0.5,0.3-0.9,0.4-1.4c0.2-0.5-0.1-1.1-0.6-1.3
		c-0.5-0.2-1.1,0.1-1.3,0.6c-0.2,0.5-0.3,1-0.5,1.5c-0.1,0.5,0.2,1.1,0.7,1.2C3.3,21.9,3.8,21.6,4,21z M3.2,28.5c0-0.4,0-0.9,0-1.3
		c0-0.6-0.4-1-1-1c-0.6,0-1,0.4-1,1c0,0.5,0,0.9,0,1.4c0,0.6,0.5,1,1.1,0.9C2.8,29.5,3.2,29.1,3.2,28.5z M4.4,34.9
		C4.3,34.5,4.1,34,4,33.6c-0.1-0.5-0.7-0.8-1.2-0.7c-0.5,0.1-0.8,0.7-0.7,1.2c0.1,0.5,0.3,1,0.5,1.4c0.2,0.5,0.8,0.8,1.3,0.6
		C4.3,36,4.6,35.4,4.4,34.9z M8.4,42c-0.6-0.7-1.2-1.5-1.7-2.3c-0.3-0.5-0.9-0.6-1.4-0.3c-0.5,0.3-0.6,0.9-0.3,1.4
		c0.6,0.9,1.2,1.7,1.8,2.5c0.3,0.4,1,0.5,1.4,0.1C8.7,43.1,8.8,42.4,8.4,42z M16.2,48.2c-0.7-0.3-1.4-0.7-2-1.1
		c-0.5-0.3-1.1-0.1-1.4,0.3c-0.3,0.5-0.1,1.1,0.3,1.4c0.7,0.4,1.5,0.9,2.2,1.2c0.5,0.2,1.1,0,1.3-0.5C16.9,49,16.7,48.4,16.2,48.2z
		 M23.5,50.4c-1-0.1-1.9-0.3-2.9-0.5c-0.5-0.1-1.1,0.2-1.2,0.7c-0.1,0.5,0.2,1.1,0.7,1.2c1,0.3,2,0.5,3.1,0.6c0.5,0.1,1-0.3,1.1-0.9
		C24.4,50.9,24,50.4,23.5,50.4z"/>
	<path class="st0" d="M11.1,21.3c0.7-2.5,1.7-4.9,3.1-7c0.3-0.5,0.2-1.1-0.3-1.4c-0.5-0.3-1.1-0.2-1.4,0.3C11,15.5,9.9,18,9.2,20.8
		C9,21.3,9.3,21.8,9.9,22C10.4,22.1,11,21.8,11.1,21.3z M11.3,33.9c-0.6-2.1-1-4.3-1-6.6c0-0.6-0.4-1-1-1c-0.6,0-1,0.4-1,1
		c0,2.5,0.4,4.9,1,7.2c0.2,0.5,0.7,0.8,1.2,0.7C11.1,34.9,11.4,34.4,11.3,33.9z M14,39.8c-0.4-0.7-0.9-1.4-1.2-2.2
		c-0.2-0.5-0.8-0.7-1.3-0.4c-0.5,0.2-0.7,0.8-0.4,1.3c0.4,0.8,0.8,1.6,1.3,2.3c0.3,0.5,0.9,0.6,1.4,0.3C14.2,40.9,14.3,40.3,14,39.8
		z M18,44.6c-0.8-0.7-1.5-1.4-2.1-2.2c-0.4-0.4-1-0.5-1.4-0.1c-0.4,0.4-0.5,1-0.1,1.4c0.7,0.8,1.5,1.6,2.3,2.4
		c0.4,0.4,1,0.3,1.4-0.1C18.5,45.6,18.5,44.9,18,44.6z M18,9.9c2.1-1.9,4.4-3.3,7.1-4.4c2.6-1,5.5-1.6,8.5-1.6
		c12.9,0,23.3,10.4,23.3,23.3c0,12.9-10.4,23.3-23.3,23.3c-4.3,0-8.4-1.2-11.8-3.2c-0.5-0.3-1.1-0.1-1.4,0.4
		c-0.3,0.5-0.1,1.1,0.4,1.4c3.8,2.2,8.2,3.5,12.8,3.5c14,0,25.3-11.3,25.3-25.3S47.6,1.9,33.6,1.9c-3.3,0-6.4,0.6-9.3,1.8
		c-2.8,1.1-5.4,2.7-7.7,4.8c-0.4,0.4-0.4,1-0.1,1.4C17,10.2,17.6,10.3,18,9.9z"/>
	<path class="st0" d="M49.6,16.4c2.1,3.1,3.4,6.9,3.4,10.9c0,8.5-5.5,15.7-13.1,18.3c-0.5,0.2-0.8,0.7-0.6,1.3
		c0.2,0.5,0.7,0.8,1.3,0.6c8.4-2.8,14.5-10.8,14.5-20.2c0-4.5-1.4-8.6-3.7-12c-0.3-0.5-0.9-0.6-1.4-0.3
		C49.4,15.3,49.3,15.9,49.6,16.4z M30.6,8.2c1-0.2,2-0.2,3.1-0.2c0.6,0,1-0.4,1-1c0-0.6-0.4-1-1-1c-1.2,0-2.3,0.1-3.4,0.3
		c-0.5,0.1-0.9,0.6-0.8,1.1C29.5,7.9,30,8.3,30.6,8.2z M17.6,16.5c1.4-2.1,3.2-3.9,5.2-5.2c1.2-0.8,2.5-1.5,3.9-2
		C27.2,9,27.5,8.5,27.3,8c-0.2-0.5-0.8-0.8-1.3-0.6C24.5,8,23,8.7,21.7,9.6c-2.3,1.5-4.2,3.5-5.8,5.8c-0.3,0.5-0.2,1.1,0.3,1.4
		C16.7,17.1,17.3,17,17.6,16.5z M14.3,27.3c0-2.1,0.3-4.2,1-6.1c0.2-0.5-0.1-1.1-0.6-1.3c-0.5-0.2-1.1,0.1-1.3,0.6
		c-0.7,2.1-1.1,4.4-1.1,6.7c0,0.6,0.4,1,1,1C13.9,28.3,14.3,27.8,14.3,27.3z M15.8,34.7c-0.3-0.8-0.6-1.7-0.9-2.6
		c-0.1-0.5-0.7-0.9-1.2-0.7c-0.5,0.1-0.9,0.7-0.7,1.2c0.3,1,0.6,1.9,1,2.9c0.2,0.5,0.8,0.8,1.3,0.5C15.8,35.8,16,35.2,15.8,34.7z"/>
	<path class="st0" d="M29.5,19.5L29.5,19.5c0,0,0.6-1.3,3.1-1.3c2.9,0,3.7,2.1,3.8,3.4c0.2,0.7-2.2,3.1-4.1,4.7
		c-1.8,1.7-4.1,3.8-4.1,7.2c0.1,3.7,3.6,5,6,5c2.7,0,4.5-2,4.6-2c0.4-0.4,0.4-1,0-1.4c-0.4-0.4-1-0.4-1.4,0c0,0-1.5,1.5-3.1,1.4
		c-2,0-4-0.9-4-3c0-2.4,1.6-4,3.5-5.7c1.7-1.8,4.6-3.6,4.8-6.2c0-2.1-1.6-5.4-5.8-5.4c-3.5,0-4.8,2.2-4.9,2.4l0,0
		c-0.3,0.5-0.1,1.1,0.4,1.4C28.6,20.2,29.2,20,29.5,19.5z"/>
	<path class="st0" d="M25.6,26.4h15c0.6,0,1-0.4,1-1c0-0.6-0.4-1-1-1h-15c-0.6,0-1,0.4-1,1C24.6,26,25,26.4,25.6,26.4"/>
	<path class="st0" d="M25.6,30h15c0.6,0,1-0.4,1-1c0-0.6-0.4-1-1-1h-15c-0.6,0-1,0.4-1,1C24.6,29.6,25,30,25.6,30"/>
</g>
</svg>
