<?xml version="1.0" encoding="utf-8"?>
<svg xmlns="http://www.w3.org/2000/svg"
	xmlns:xlink="http://www.w3.org/1999/xlink"
	width="24px" height="24px" viewBox="0 0 12 12">
<g><path fillRule="evenodd" d="M 0.9 0.9C 0.9 0.9 11.4 11.4 11.4 11.4" fill="rgb(146,146,146)"/><path fillRule="evenodd" d="M 0.55 1.26C 0.55 1.26 11.04 11.75 11.04 11.75 11.24 11.94 11.55 11.94 11.75 11.75 11.94 11.55 11.94 11.24 11.75 11.04 11.75 11.04 1.26 0.55 1.26 0.55 1.06 0.35 0.75 0.35 0.55 0.55 0.35 0.75 0.35 1.06 0.55 1.26" fill="rgb(225,83,103)"/></g><g><path fillRule="evenodd" d="M 11.42 0.9C 11.42 0.9 0.93 11.4 0.93 11.4" fill="rgb(146,146,146)"/><path fillRule="evenodd" d="M 11.07 0.55C 11.07 0.55 0.58 11.04 0.58 11.04 0.38 11.24 0.38 11.55 0.58 11.75 0.77 11.94 1.09 11.94 1.28 11.75 1.28 11.75 11.77 1.26 11.77 1.26 11.97 1.06 11.97 0.75 11.77 0.55 11.58 0.35 11.26 0.35 11.07 0.55" fill="rgb(225,83,103)"/></g></svg>