<svg id="SvgjsSvg1000" xmlns="http://www.w3.org/2000/svg" version="1.1" xmlns:xlink="http://www.w3.org/1999/xlink" xmlns:svgjs="http://svgjs.com/svgjs" width="27" height="35"><defs id="SvgjsDefs1001"><clipPath id="SvgjsClipPath1009"><path id="SvgjsPath1008" d="M900.836 2094.98L920.8720000000001 2094.98L925.9480000000001 2100.5L926.0310000000001 2128.92L900.9190000000001 2128.92Z " fill="#ffffff"></path></clipPath></defs><path id="SvgjsPath1007" d="M900.836 2094.98L920.8720000000001 2094.98L925.9480000000001 2100.5L926.0310000000001 2128.92L900.9190000000001 2128.92Z " fill-opacity="0" fill="#ffffff" stroke-dasharray="0" stroke-linejoin="miter" stroke-linecap="butt" stroke-opacity="1" stroke="#e55166" stroke-miterlimit="50" stroke-width="3" clip-path="url(&quot;#SvgjsClipPath1009&quot;)" transform="matrix(1,0,0,1,-900,-2094)"></path><path id="SvgjsPath1010" d="M905.937 2101.01L917.968 2101.01 " fill-opacity="0" fill="#ffffff" stroke-dasharray="0" stroke-linejoin="miter" stroke-linecap="butt" stroke-opacity="1" stroke="#e55166" stroke-miterlimit="50" stroke-width="1.5" transform="matrix(1,0,0,1,-900,-2094)"></path><path id="SvgjsPath1011" d="M905.937 2106.01L921.041 2106.01 " fill-opacity="0" fill="#ffffff" stroke-dasharray="0" stroke-linejoin="miter" stroke-linecap="butt" stroke-opacity="1" stroke="#e55166" stroke-miterlimit="50" stroke-width="1.5" transform="matrix(1,0,0,1,-900,-2094)"></path><path id="SvgjsPath1012" d="M905.937 2111.01L921.041 2111.01 " fill-opacity="0" fill="#ffffff" stroke-dasharray="0" stroke-linejoin="miter" stroke-linecap="butt" stroke-opacity="1" stroke="#e55166" stroke-miterlimit="50" stroke-width="1.5" transform="matrix(1,0,0,1,-900,-2094)"></path><path id="SvgjsPath1013" d="M905.937 2116.01L921.041 2116.01 " fill-opacity="0" fill="#ffffff" stroke-dasharray="0" stroke-linejoin="miter" stroke-linecap="butt" stroke-opacity="1" stroke="#e55166" stroke-miterlimit="50" stroke-width="1.5" transform="matrix(1,0,0,1,-900,-2094)"></path><path id="SvgjsPath1014" d="M905.937 2121.01L921.041 2121.01 " fill-opacity="0" fill="#ffffff" stroke-dasharray="0" stroke-linejoin="miter" stroke-linecap="butt" stroke-opacity="1" stroke="#e55166" stroke-miterlimit="50" stroke-width="1.5" transform="matrix(1,0,0,1,-900,-2094)"></path></svg>