<?xml version="1.0" encoding="utf-8"?>
<svg xmlns="http://www.w3.org/2000/svg"
	xmlns:xlink="http://www.w3.org/1999/xlink"
	width="26px" height="26px" viewBox="0 0 13 13">
<path fillRule="evenodd" d="M 1.64 11.59C 1.64 11.59 3.48 11.23 3.48 11.23 3.48 11.23 11.05 3.67 11.05 3.67 11.05 3.67 9.54 2.16 9.54 2.16 9.54 2.16 2.06 9.63 2.06 9.63 2.06 9.63 1.64 11.59 1.64 11.59M 0.35 12.86C 0.35 12.86 1.15 9.14 1.15 9.14 1.15 9.14 9.54 0.74 9.54 0.74 9.54 0.74 12.46 3.67 12.46 3.67 12.46 3.67 3.98 12.15 3.98 12.15 3.98 12.15 0.35 12.86 0.35 12.86 0.35 12.86 0.35 12.86 0.35 12.86Z" fill="rgb(255,255,255)"/><path fillRule="evenodd" d="M 1.95 9.18C 1.95 9.18 2.66 8.47 2.66 8.47 2.66 8.47 4.53 10.34 4.53 10.34 4.53 10.34 3.82 11.05 3.82 11.05 3.82 11.05 1.95 9.18 1.95 9.18" fill="rgb(255,255,255)"/><path fillRule="evenodd" d="M 7.51 3.83C 7.51 3.83 8.22 3.13 8.22 3.13 8.22 3.13 10.09 5 10.09 5 10.09 5 9.39 5.71 9.39 5.71 9.39 5.71 7.51 3.83 7.51 3.83" fill="rgb(255,255,255)"/></svg>