<?xml version="1.0" encoding="utf-8"?>
<svg xmlns="http://www.w3.org/2000/svg"
	xmlns:xlink="http://www.w3.org/1999/xlink"
	width="30px" height="30px" viewBox="0 0 15 15">
<path fillRule="evenodd" d="M 1.76 13.47C 1.76 13.47 4.13 13.01 4.13 13.01 4.13 13.01 12.93 4.21 12.93 4.21 12.93 4.21 10.99 2.28 10.99 2.28 10.99 2.28 2.3 10.97 2.3 10.97 2.3 10.97 1.76 13.47 1.76 13.47M 0.47 14.74C 0.47 14.74 1.38 10.47 1.38 10.47 1.38 10.47 10.99 0.86 10.99 0.86 10.99 0.86 14.34 4.21 14.34 4.21 14.34 4.21 4.62 13.93 4.62 13.93 4.62 13.93 0.47 14.74 0.47 14.74 0.47 14.74 0.47 14.74 0.47 14.74Z" fill="rgb(225,83,103)"/><path fillRule="evenodd" d="M 2.4 10.42C 2.4 10.42 3.11 9.71 3.11 9.71 3.11 9.71 5.26 11.86 5.26 11.86 5.26 11.86 4.55 12.56 4.55 12.56 4.55 12.56 2.4 10.42 2.4 10.42" fill="rgb(225,83,103)"/><path fillRule="evenodd" d="M 8.77 4.3C 8.77 4.3 9.48 3.59 9.48 3.59 9.48 3.59 11.63 5.74 11.63 5.74 11.63 5.74 10.92 6.44 10.92 6.44 10.92 6.44 8.77 4.3 8.77 4.3" fill="rgb(225,83,103)"/></svg>