<svg xmlns="http://www.w3.org/2000/svg" xmlns:xlink="http://www.w3.org/1999/xlink" width="25" height="26" viewBox="0 0 25 26"><defs><path id="wno8a" d="M1062.06 326.35a8.28 8.28 0 1 1 0 16.57 8.28 8.28 0 0 1 0-16.57z"/><path id="wno8b" d="M1062.06 331.45c3.5 0 6.34 3.18 6.34 3.18s-2.84 3.19-6.34 3.19-6.34-3.19-6.34-3.19 2.84-3.18 6.34-3.18z"/><path id="wno8c" d="M1062.06 333.13a1.5 1.5 0 1 1 0 3 1.5 1.5 0 0 1 0-3z"/><path id="wno8d" d="M1071.03 342.3l3.61 3.61-1.3 1.42-3.67-3.66z"/><path id="wno8e" d="M1070 342.83l-2.25-2.5"/></defs><g><g transform="translate(-1052 -324)"><use fill="#fff" fill-opacity="0" stroke="#e55166" stroke-linecap="round" stroke-miterlimit="50" xlink:href="#wno8a"/></g><g transform="translate(-1052 -324)"><use fill="#fff" fill-opacity="0" stroke="#e55166" stroke-linecap="round" stroke-miterlimit="50" xlink:href="#wno8b"/></g><g transform="translate(-1052 -324)"><use fill="#fff" fill-opacity="0" stroke="#e55166" stroke-linecap="round" stroke-miterlimit="50" xlink:href="#wno8c"/></g><g transform="translate(-1052 -324)"><use fill="#fff" fill-opacity="0" stroke="#e55166" stroke-linecap="round" stroke-miterlimit="50" xlink:href="#wno8d"/></g><g transform="translate(-1052 -324)"><use fill="#fff" fill-opacity="0" stroke="#e55166" stroke-linecap="round" stroke-miterlimit="50" xlink:href="#wno8e"/></g></g></svg>