<?xml version="1.0" encoding="utf-8"?>
<svg xmlns="http://www.w3.org/2000/svg"
	xmlns:xlink="http://www.w3.org/1999/xlink"
	width="36px" height="34px" viewBox="0 0 18 17">
<style type="text/css"><![CDATA[
.style0 {
  font-size: 12px;
  font-family: "Roboto-Regular";
  fill: rgb(147,147,147);
}
]]></style>
<path fillRule="evenodd" d="M 8.8 15.65C 12.85 15.65 16.13 12.36 16.13 8.32 16.13 4.28 12.85 0.99 8.8 0.99 4.76 0.99 1.47 4.28 1.47 8.32 1.47 12.36 4.76 15.65 8.8 15.65M 8.8 16.65C 4.2 16.65 0.47 12.92 0.47 8.32 0.47 3.72 4.2-0.01 8.8-0.01 13.4-0.01 17.13 3.72 17.13 8.32 17.13 12.92 13.4 16.65 8.8 16.65 8.8 16.65 8.8 16.65 8.8 16.65Z" fill="rgb(146,146,146)"/><text transform="translate(7.18,12.63)" class="style0"><tspan x="0.00" fill="rgb(147,147,147)">i</tspan></text></svg>