<?xml version="1.0" encoding="UTF-8"?>
<svg width="45px" height="45px" viewBox="0 0 45 45" version="1.1" xmlns="http://www.w3.org/2000/svg" xmlns:xlink="http://www.w3.org/1999/xlink">
    <!-- Generator: Sketch 49.3 (51167) - http://www.bohemiancoding.com/sketch -->
    <title>Group 22</title>
    <desc>Created with Sketch.</desc>
    <defs></defs>
    <g id="Page-1" stroke="none" stroke-width="1" fill="none" fill-rule="evenodd">
        <g id="mob_dozorro_feedback-copy" transform="translate(-305.000000, -667.000000)">
            <g id="Group-22" transform="translate(305.000000, 667.000000)">
                <g>
                    <circle id="Oval-3" fill="#E55166" cx="22.5" cy="22.5" r="22.5"></circle>
                    <g id="noun_1079413_cc-copy-2" transform="translate(15.000000, 16.875000)" fill="#FFFFFF">
                        <g id="noun_1079413_cc" transform="translate(-0.516129, -0.560000)">
                            <path d="M14.2451628,0.139998346 L2.7870953,0.139998346 C1.37852722,0.139998346 0.232255985,1.38370264 0.232255985,2.911999 L0.232255985,14.9520019 C0.232255985,15.0764339 0.301520517,15.189162 0.407404413,15.236594 C0.516410891,15.28495 0.63705608,15.256306 0.716823841,15.169758 L2.90461791,12.7960014 L14.2451628,12.7960014 C15.6537308,12.7960014 16.8000021,11.5522971 16.8000021,10.0240007 L16.8000021,2.911999 C16.8000021,1.38370264 15.6537308,0.139998346 14.2451628,0.139998346 Z M16,9.8 C16,10.88052 15.1894194,11.76 14.1935484,11.76 L2.83870968,11.76 C2.77032258,11.76 2.70451613,11.7894 2.65625806,11.84204 L1.03225806,13.60408 L1.03225806,3.08 C1.03225806,1.9992 1.84258065,1.12 2.83870968,1.12 L14.1935484,1.12 C15.1894194,1.12 16,1.9992 16,3.08 L16,9.8 Z M3.87096774,3.82210938 L13.1612903,3.82210938 L13.1612903,4.54658203 L3.87096774,4.54658203 L3.87096774,3.82210938 Z M3.87096774,6.07776367 L13.1612903,6.07776367 L13.1612903,6.80223633 L3.87096774,6.80223633 L3.87096774,6.07776367 Z M3.87096774,8.33341797 L11.6129032,8.33341797 L11.6129032,9.05789063 L3.87096774,9.05789063 L3.87096774,8.33341797 Z" id="Shape" fill-rule="nonzero"></path>
                        </g>
                    </g>
                </g>
            </g>
        </g>
    </g>
</svg>