<svg xmlns="http://www.w3.org/2000/svg" xmlns:xlink="http://www.w3.org/1999/xlink" width="43" height="22" viewBox="0 0 43 22"><defs><path id="xfxka" d="M933.94 456.03a15.6 15.6 0 0 1 15.6 15.6c-8.54-.01-20.7.05-31.2 0a15.6 15.6 0 0 1 15.6-15.6z"/><path id="xfxkc" d="M933.94 459.24c6.84 0 12.38 5.55 12.38 12.39-6.88-.04-18.27.02-24.77 0 0-6.84 5.55-12.39 12.39-12.39z"/><path id="xfxkd" d="M922.73 460.3l11.19 11.35-16.42-.08s-.21-1.54 1.9-6.82c1.15-2.9 3.33-4.45 3.33-4.45z"/><path id="xfxke" d="M915.53 471.5l18.39.15 8.61-15.27s-13.49-1.64-16.28-.2c-11.6 6-10.72 15.32-10.72 15.32z"/><path id="xfxkf" d="M945.81 459.75l-11.89 11.9 19.79 1.13s-4.8-8.79-1.01-6.17c1.9 1.31-6.89-6.86-6.89-6.86z"/><path id="xfxkg" d="M933.94 462.81a8.82 8.82 0 0 1 8.81 8.82c-.03.77.1 1.96.1 1.96l-17.68.12s-.05-1-.05-2.08a8.82 8.82 0 0 1 8.82-8.82z"/><path id="xfxkh" d="M942.69 455.09l2.85 1.97-10.65 14.43h-.87z"/><clipPath id="xfxkb"><use xlink:href="#xfxka"/></clipPath></defs><g><g transform="translate(-913 -453)"><use fill="#ececec" xlink:href="#xfxka"/></g><g clip-path="url(#xfxkb)" transform="translate(-913 -453)"><use fill="#d4d4d4" xlink:href="#xfxkc"/></g><g clip-path="url(#xfxkb)" opacity=".6" transform="translate(-913 -453)"><use fill="#eaeaea" xlink:href="#xfxkd"/></g><g clip-path="url(#xfxkb)" transform="translate(-913 -453)"><use fill="#ff9b3a" xlink:href="#xfxke"/></g><g clip-path="url(#xfxkb)" transform="translate(-913 -453)"><use fill="#e6e6e6" xlink:href="#xfxkf"/></g><g clip-path="url(#xfxkb)" transform="translate(-913 -453)"><use fill="#f4f7f8" xlink:href="#xfxkg"/></g><g transform="translate(-913 -453)"><use fill="#e55166" xlink:href="#xfxkh"/></g></g></svg>