<?xml version="1.0" encoding="utf-8"?>
<svg xmlns="http://www.w3.org/2000/svg"
	xmlns:xlink="http://www.w3.org/1999/xlink"
	width="20px" height="12px" viewBox="0 0 10 6">
<g><path fillRule="evenodd" d="M 0.91 0.69C 0.91 0.69 4.99 4.76 4.99 4.76 4.99 4.76 9.02 0.74 9.02 0.74" fill="rgb(255,255,255)"/><path fillRule="evenodd" d="M 0.56 1.04C 0.56 1.04 4.99 5.47 4.99 5.47 4.99 5.47 9.37 1.09 9.37 1.09 9.57 0.89 9.57 0.58 9.37 0.38 9.17 0.19 8.86 0.19 8.66 0.38 8.66 0.38 4.99 4.06 4.99 4.06 4.99 4.06 1.26 0.33 1.26 0.33 1.07 0.14 0.75 0.14 0.56 0.33 0.36 0.53 0.36 0.84 0.56 1.04 0.56 1.04 0.56 1.04 0.56 1.04Z" fill="rgb(54,54,54)"/></g></svg>