<?xml version="1.0" encoding="utf-8"?>
<svg xmlns="http://www.w3.org/2000/svg"
	xmlns:xlink="http://www.w3.org/1999/xlink"
	width="30px" height="28px" viewBox="0 0 15 14">
<path fillRule="evenodd" d="M 7.23 0.27C 7.23 0.27 9.56 4.51 9.56 4.51 9.56 4.51 14.31 5.42 14.31 5.42 14.31 5.42 11 8.95 11 8.95 11 8.95 11.6 13.74 11.6 13.74 11.6 13.74 7.23 11.69 7.23 11.69 7.23 11.69 2.85 13.74 2.85 13.74 2.85 13.74 3.45 8.95 3.45 8.95 3.45 8.95 0.15 5.42 0.15 5.42 0.15 5.42 4.89 4.51 4.89 4.51 4.89 4.51 7.23 0.27 7.23 0.27" fill="rgb(204,204,204)"/></svg>