<?xml version="1.0" encoding="UTF-8"?>
<svg width="16px" height="16px" viewBox="0 0 16 16" version="1.1" xmlns="http://www.w3.org/2000/svg" xmlns:xlink="http://www.w3.org/1999/xlink">
    <!-- Generator: Sketch 40.3 (33839) - http://www.bohemiancoding.com/sketch -->
    <title>check_circle - materialicons-regular copy 2</title>
    <desc>Created with Sketch.</desc>
    <defs></defs>
    <g id="Draft" stroke="none" stroke-width="1" fill="none" fill-rule="evenodd">
        <g id="Comments-Alt.3" transform="translate(-160.000000, -936.000000)" fill="#1BD433">
            <path d="M166.488,947.462 L173.238,940.712 L172.176,939.614 L166.488,945.32 L163.824,942.638 L162.762,943.7 L166.488,947.462 Z M168,936.212 C169.368007,936.212 170.633994,936.553997 171.798,937.238 C172.926006,937.886003 173.813997,938.773994 174.462,939.902 C175.146003,941.066006 175.488,942.331993 175.488,943.7 C175.488,945.068007 175.146003,946.333994 174.462,947.498 C173.813997,948.626006 172.926006,949.513997 171.798,950.162 C170.633994,950.846003 169.368007,951.188 168,951.188 C166.631993,951.188 165.366006,950.846003 164.202,950.162 C163.073994,949.501997 162.186003,948.608006 161.538,947.48 C160.853997,946.315994 160.512,945.056007 160.512,943.7 C160.512,942.343993 160.853997,941.084006 161.538,939.92 C162.198003,938.791994 163.091994,937.898003 164.22,937.238 C165.384006,936.553997 166.643993,936.212 168,936.212 L168,936.212 Z" id="check_circle---materialicons-regular-copy-2"></path>
        </g>
    </g>
</svg>