<?xml version="1.0" encoding="UTF-8"?>
<svg width="12px" height="15px" viewBox="0 0 12 15" version="1.1" xmlns="http://www.w3.org/2000/svg" xmlns:xlink="http://www.w3.org/1999/xlink">
    <!-- Generator: Sketch 40.3 (33839) - http://www.bohemiancoding.com/sketch -->
    <title>date_range - materialicons-regular copy</title>
    <desc>Created with Sketch.</desc>
    <defs></defs>
    <g id="Draft" stroke="none" stroke-width="1" fill="none" fill-rule="evenodd" opacity="0.200000003">
        <g id="Comments-Alt.3" transform="translate(-338.000000, -1429.000000)" fill="#000000">
            <path d="M348.656,1441.744 L348.656,1434.4 L339.344,1434.4 L339.344,1441.744 L348.656,1441.744 Z M348.656,1431.056 C349.018668,1431.056 349.333332,1431.18933 349.6,1431.456 C349.866668,1431.72267 350,1432.03733 350,1432.4 L350,1441.744 C350,1442.10667 349.866668,1442.416 349.6,1442.672 C349.333332,1442.928 349.018668,1443.056 348.656,1443.056 L339.344,1443.056 C338.970665,1443.056 338.653335,1442.928 338.392,1442.672 C338.130665,1442.416 338,1442.10667 338,1441.744 L338,1432.4 C338,1432.03733 338.130665,1431.72267 338.392,1431.456 C338.653335,1431.18933 338.970665,1431.056 339.344,1431.056 L340,1431.056 L340,1429.744 L341.344,1429.744 L341.344,1431.056 L346.656,1431.056 L346.656,1429.744 L348,1429.744 L348,1431.056 L348.656,1431.056 Z M347.344,1435.744 L347.344,1437.056 L346,1437.056 L346,1435.744 L347.344,1435.744 Z M344.656,1435.744 L344.656,1437.056 L343.344,1437.056 L343.344,1435.744 L344.656,1435.744 Z M342,1435.744 L342,1437.056 L340.656,1437.056 L340.656,1435.744 L342,1435.744 Z" id="date_range---materialicons-regular-copy"></path>
        </g>
    </g>
</svg>