<?xml version="1.0" encoding="UTF-8"?>
<svg width="15px" height="15px" viewBox="0 0 15 15" version="1.1" xmlns="http://www.w3.org/2000/svg" xmlns:xlink="http://www.w3.org/1999/xlink">
    <!-- Generator: Sketch 40.3 (33839) - http://www.bohemiancoding.com/sketch -->
    <title>error - materialicons-regular</title>
    <desc>Created with Sketch.</desc>
    <defs></defs>
    <g id="Draft" stroke="none" stroke-width="1" fill="none" fill-rule="evenodd">
        <g id="Comments-Alt.3" transform="translate(-160.000000, -1642.000000)" fill="#BDBDBD">
            <g id="error---materialicons-regular---group" transform="translate(160.000000, 1642.000000)">
                <path d="M8.226,8.226 L8.226,3.726 L6.75,3.726 L6.75,8.226 L8.226,8.226 Z M8.226,11.25 L8.226,9.738 L6.75,9.738 L6.75,11.25 L8.226,11.25 Z M7.488,0 C8.85600684,0 10.1219942,0.34199658 11.286,1.026 C12.4140056,1.67400324 13.3019968,2.56199436 13.95,3.69 C14.6340034,4.85400582 14.976,6.11999316 14.976,7.488 C14.976,8.85600684 14.6340034,10.1219942 13.95,11.286 C13.3019968,12.4140056 12.4140056,13.3019968 11.286,13.95 C10.1219942,14.6340034 8.85600684,14.976 7.488,14.976 C6.11999316,14.976 4.85400582,14.6340034 3.69,13.95 C2.56199436,13.2899967 1.67400324,12.3960056 1.026,11.268 C0.34199658,10.1039942 0,8.84400678 0,7.488 C0,6.13199322 0.34199658,4.87200582 1.026,3.708 C1.6860033,2.57999436 2.57999436,1.6860033 3.708,1.026 C4.87200582,0.34199658 6.13199322,0 7.488,0 L7.488,0 Z" id="error---materialicons-regular"></path>
            </g>
        </g>
    </g>
</svg>