<?xml version="1.0" encoding="UTF-8"?>
<svg width="113px" height="25px" viewBox="0 0 113 25" version="1.1" xmlns="http://www.w3.org/2000/svg" xmlns:xlink="http://www.w3.org/1999/xlink">
    <!-- Generator: sketchtool 40.3 (33839) - http://www.bohemiancoding.com/sketch -->
    <title>50D422B3-1443-4832-AE30-36F7D06902B7</title>
    <desc>Created with sketchtool.</desc>
    <defs>
        <polygon id="path-1" points="5.95968108 0.309693878 0.492924324 0.309693878 0.492924324 5.7880102 5.95968108 5.7880102 5.95968108 0.309693878"></polygon>
        <polygon id="path-3" points="6.89835842e-20 0.358673469 6.89835842e-20 17.0137755 14.7172829 17.0137755 14.7172829 0.358673469 0 0.358673469"></polygon>
        <polygon id="path-5" points="0.25480991 17.3469388 17.5353604 17.3469388 17.5353604 0.0255612245 0.25480991 0.0255612245 0.25480991 17.3469388"></polygon>
        <polygon id="path-7" points="0.238267117 21.4285714 17.518614 21.4285714 17.518614 0.40877551 0.238267117 0.40877551 0.238267117 21.4285714"></polygon>
    </defs>
    <g id="Main" stroke="none" stroke-width="1" fill="none" fill-rule="evenodd">
        <g id="Main-Alt" transform="translate(-81.000000, -43.000000)">
            <g id="Page-1" transform="translate(81.000000, 43.000000)">
                <g id="Group-3" transform="translate(37.666667, 0.200765)">
                    <mask id="mask-2" fill="white">
                        <use xlink:href="#path-1"></use>
                    </mask>
                    <g id="Clip-2"></g>
                    <path d="M3.2263027,0.309438776 C4.73551441,0.309438776 5.95968108,1.53647959 5.95968108,3.04923469 C5.95968108,4.5619898 4.73551441,5.7880102 3.2263027,5.7880102 C1.7176,5.7880102 0.492924324,4.5619898 0.492924324,3.04923469 C0.492924324,1.53647959 1.7176,0.309438776 3.2263027,0.309438776" id="Fill-1" fill="#E55166" mask="url(#mask-2)"></path>
                </g>
                <g id="Group-6" transform="translate(0.000000, 7.343622)">
                    <mask id="mask-4" fill="white">
                        <use xlink:href="#path-3"></use>
                    </mask>
                    <g id="Clip-5"></g>
                    <path d="M6.64694505,13.3505102 L3.79853063,13.3505102 L3.79853063,4.02346939 L6.64694505,4.02346939 C9.25816126,4.02346939 11.0625982,5.83163265 11.0625982,8.68673469 C11.0625982,11.5423469 9.25816126,13.3505102 6.64694505,13.3505102 M6.64694505,0.358673469 L-0.000203603604,0.358673469 L-0.000203603604,17.0137755 L6.64694505,17.0137755 C11.2285351,17.0137755 14.7172829,13.3979592 14.7172829,8.68673469 C14.7172829,3.97602041 11.2285351,0.358673469 6.64694505,0.358673469" id="Fill-4" fill="#E55166" mask="url(#mask-4)"></path>
                </g>
                <polygon id="Fill-7" fill="#E55166" points="45.9999586 10.6532143 45.9999586 7.70219388 34.8440081 7.70219388 34.8440081 11.3669898 41.0859856 11.3669898 34.724391 21.4078061 34.724391 24.3572959 46.1180486 24.3572959 46.1180486 20.6940306 39.638364 20.6940306"></polygon>
                <g id="Group-11" transform="translate(95.184685, 7.343622)">
                    <mask id="mask-6" fill="white">
                        <use xlink:href="#path-5"></use>
                    </mask>
                    <g id="Clip-10"></g>
                    <path d="M8.89574685,13.6352551 C6.18883694,13.6352551 4.05303514,11.6607653 4.05303514,8.68678571 C4.05303514,5.71331633 6.18883694,3.73729592 8.89574685,3.73729592 C11.6011297,3.73729592 13.7384586,5.71331633 13.7384586,8.68678571 C13.7384586,11.6607653 11.6011297,13.6352551 8.89574685,13.6352551 M8.89574685,0.0255612245 C4.1242964,0.0255612245 0.25480991,3.78576531 0.25480991,8.68678571 C0.25480991,13.5878061 4.1242964,17.3469898 8.89574685,17.3469898 C13.6666883,17.3469898 17.5356658,13.5878061 17.5356658,8.68678571 C17.5356658,3.78576531 13.6666883,0.0255612245 8.89574685,0.0255612245" id="Fill-9" fill="#E55166" mask="url(#mask-6)"></path>
                </g>
                <path d="M73.3668788,15.5544898 L70.5179554,15.5544898 L70.5179554,11.2713265 L73.3668788,11.2713265 C74.4108563,11.2713265 75.2649734,12.1988776 75.2649734,13.4126531 C75.2649734,14.6264286 74.4108563,15.5544898 73.3668788,15.5544898 M79.0631986,13.4126531 C79.0631986,10.2488776 76.5237527,7.70244898 73.3668788,7.70244898 L66.7197302,7.70244898 L66.7197302,24.3570408 L70.5179554,24.3570408 L70.5179554,18.8856122 L72.3213743,18.8856122 L75.4548338,24.3570408 L79.5386131,24.3570408 L76.0015095,18.2427551 C77.8288518,17.3146939 79.0631986,15.4590816 79.0631986,13.4126531" id="Fill-12" fill="#E55166"></path>
                <path d="M88.2002158,15.5544898 L85.3518014,15.5544898 L85.3518014,11.2713265 L88.2002158,11.2713265 C89.2457203,11.2713265 90.0998374,12.1988776 90.0998374,13.4126531 C90.0998374,14.6264286 89.2457203,15.5544898 88.2002158,15.5544898 M93.8980626,13.4126531 C93.8980626,10.2488776 91.3575986,7.70244898 88.2002158,7.70244898 L81.5545941,7.70244898 L81.5545941,24.3570408 L85.3518014,24.3570408 L85.3518014,18.8856122 L87.1557293,18.8856122 L90.2896977,24.3570408 L94.37195,24.3570408 L90.8363734,18.2427551 C92.6632068,17.3146939 93.8980626,15.4590816 93.8980626,13.4126531" id="Fill-14" fill="#E55166"></path>
                <path d="M25.0177419,20.9788776 C22.31185,20.9788776 20.1750302,19.0043878 20.1750302,16.0304082 C20.1750302,13.0569388 22.31185,11.0809184 25.0177419,11.0809184 C27.7246518,11.0809184 29.8599446,13.0569388 29.8599446,16.0304082 C29.8599446,19.0043878 27.7246518,20.9788776 25.0177419,20.9788776 M25.0620257,9.61918367 C21.5351023,9.61918367 18.6653095,12.4962245 18.6653095,16.029898 C18.6653095,19.5656122 21.5351023,22.4421429 25.0620257,22.4421429 C28.5884401,22.4421429 31.4582329,19.5656122 31.4582329,16.029898 C31.4582329,12.4962245 28.5884401,9.61918367 25.0620257,9.61918367" id="Fill-16" fill="#E55166"></path>
                <g id="Group-20" transform="translate(16.288288, 3.261990)" fill="#E55166">
                    <path d="M8.77368649,20.2464796 C4.65274955,20.2464796 1.31263243,16.8985204 1.31263243,12.7679082 C1.31263243,8.63831633 4.65274955,5.28984694 8.77368649,5.28984694 C12.8941144,5.28984694 16.2347405,8.63831633 16.2347405,12.7679082 C16.2347405,16.8985204 12.8941144,20.2464796 8.77368649,20.2464796 M12.0364342,2.36382653 C13.1888306,2.57811224 14.2175378,3.14392857 15.0075198,3.94545918 L15.0085378,3.94545918 C15.2095964,4.14903061 15.2070514,4.47760204 15.0044658,4.67913265 C14.8013712,4.88015306 14.4735694,4.87811224 14.2730198,4.67454082 C13.6265784,4.01943878 12.7862045,3.55770408 11.8475919,3.38270408 C11.5666189,3.33015306 11.3813396,3.0597449 11.4327495,2.77811224 C11.4856865,2.4969898 11.7554613,2.31076531 12.0364342,2.36382653 M11.7437541,0.430663265 C10.1795694,0.430663265 8.76452432,1.07045918 7.74396126,2.10209184 L3.07533063,6.18321429 C3.0117045,6.23780612 2.94756937,6.29239796 2.88597928,6.34903061 L2.85645676,6.37454082 L2.85849279,6.37454082 C1.15636667,7.93933673 0.0894837838,10.1959694 0.0894837838,12.7684184 C0.0894837838,17.6694388 3.95795225,21.4286224 8.7294027,21.4286224 C13.2544928,21.4286224 16.9661865,18.0464796 17.3372541,13.5168878 C17.3372541,13.2755612 17.3733937,6.12352041 17.3733937,6.12352041 C17.3733937,6.10719388 17.3764477,6.09392857 17.3764477,6.07760204 C17.3764477,2.95872449 14.8543081,0.430663265 11.7437541,0.430663265" id="Fill-18"></path>
                </g>
                <path d="M55.7081347,20.9788776 C53.0022428,20.9788776 50.864914,19.0043878 50.864914,16.0304082 C50.864914,13.0569388 53.0022428,11.0809184 55.7081347,11.0809184 C58.4135176,11.0809184 60.5503374,13.0569388 60.5503374,16.0304082 C60.5503374,19.0043878 58.4135176,20.9788776 55.7081347,20.9788776 M55.671486,9.5972449 C52.1455806,9.5972449 49.2752788,12.4742857 49.2752788,16.0079592 C49.2752788,19.5436735 52.1455806,22.4202041 55.671486,22.4202041 C59.1984095,22.4202041 62.0687113,19.5436735 62.0687113,16.0079592 C62.0687113,12.4742857 59.1984095,9.5972449 55.671486,9.5972449" id="Fill-21" fill="#E55166"></path>
                <g id="Group-25" transform="translate(46.828829, 3.261990)">
                    <mask id="mask-8" fill="white">
                        <use xlink:href="#path-7"></use>
                    </mask>
                    <g id="Clip-24"></g>
                    <path d="M8.84255541,20.2245918 C4.72263649,20.2245918 1.38201036,16.8771429 1.38201036,12.7460204 C1.38201036,8.61642857 4.72263649,5.26744898 8.84255541,5.26744898 C12.9640014,5.26744898 16.3036095,8.61642857 16.3036095,12.7460204 C16.3036095,16.8771429 12.9640014,20.2245918 8.84255541,20.2245918 M2.60821306,3.92408163 L2.60923108,3.92408163 C3.39921306,3.12255102 4.42792027,2.55622449 5.58031667,2.34193878 C5.86128964,2.28938776 6.13055541,2.47510204 6.18349234,2.75673469 C6.23541126,3.03785714 6.05013198,3.30877551 5.76915901,3.36132653 C4.82952838,3.53581633 3.98966351,3.99755102 3.34373108,4.65265306 C3.14369054,4.85622449 2.81487072,4.85826531 2.61228514,4.6572449 C2.40868153,4.45622449 2.4066455,4.12714286 2.60821306,3.92408163 M14.7287356,6.35469388 C14.7490959,6.35367347 14.7602941,6.35265306 14.7602941,6.35265306 L9.87228063,2.08020408 C8.85171757,1.04857143 7.43718153,0.40877551 5.87299685,0.40877551 C2.76244279,0.40877551 0.239794144,2.93683673 0.239794144,6.05571429 C0.239794144,6.07255102 0.242848198,6.08530612 0.243357207,6.10163265 L0.240303153,12.6878571 C0.240303153,12.714898 0.238267117,12.7414286 0.238267117,12.7684694 C0.238267117,12.7944898 0.240303153,12.82 0.240303153,12.8460204 C0.240303153,12.8460204 0.270843694,13.2266327 0.270843694,13.5128571 C0.640384234,18.0444898 4.35258694,21.4286735 8.87920405,21.4286735 C13.6501455,21.4286735 17.518614,17.6694898 17.518614,12.7684694 C17.518614,10.1853061 16.4435869,7.9205102 14.7287356,6.35469388" id="Fill-23" fill="#E55166" mask="url(#mask-8)"></path>
                </g>
                <path d="M32.0814635,7.34959184 L31.0018554,6.26744898 C33.6039095,3.65979592 37.0626257,2.22357143 40.7417428,2.22357143 C44.0803329,2.22357143 47.3008329,3.43632653 49.8107563,5.63836735 L48.8049545,6.78989796 C46.573968,4.8322449 43.7102833,3.75418367 40.7417428,3.75418367 C37.4703419,3.75418367 34.3949095,5.03122449 32.0814635,7.34959184" id="Fill-26" fill="#E55166"></path>
            </g>
        </g>
    </g>
</svg>