<?xml version="1.0" encoding="UTF-8"?>
<svg width="14px" height="15px" viewBox="0 0 14 15" version="1.1" xmlns="http://www.w3.org/2000/svg" xmlns:xlink="http://www.w3.org/1999/xlink">
    <!-- Generator: Sketch 40.3 (33839) - http://www.bohemiancoding.com/sketch -->
    <title>mood - materialicons-regular copy</title>
    <desc>Created with Sketch.</desc>
    <defs></defs>
    <g id="Draft" stroke="none" stroke-width="1" fill="none" fill-rule="evenodd">
        <g id="Comments-Alt.3" transform="translate(-844.000000, -1531.000000)" fill="#000000">
            <path d="M851,1542.048 C850.221329,1542.048 849.525336,1541.83734 848.912,1541.416 C848.298664,1540.99466 847.858668,1540.43734 847.592,1539.744 L854.408,1539.744 C854.141332,1540.43734 853.701336,1540.99466 853.088,1541.416 C852.474664,1541.83734 851.778671,1542.048 851,1542.048 L851,1542.048 Z M848.664,1537.744 C848.375999,1537.744 848.136001,1537.648 847.944,1537.456 C847.751999,1537.264 847.656,1537.024 847.656,1536.736 C847.656,1536.448 847.751999,1536.21067 847.944,1536.024 C848.136001,1535.83733 848.375999,1535.744 848.664,1535.744 C848.952001,1535.744 849.189332,1535.84 849.376,1536.032 C849.562668,1536.224 849.656,1536.45867 849.656,1536.736 C849.656,1537.01333 849.560001,1537.25067 849.368,1537.448 C849.175999,1537.64533 848.941335,1537.744 848.664,1537.744 L848.664,1537.744 Z M853.352,1537.744 C853.063999,1537.744 852.824001,1537.648 852.632,1537.456 C852.439999,1537.264 852.344,1537.024 852.344,1536.736 C852.344,1536.448 852.439999,1536.21067 852.632,1536.024 C852.824001,1535.83733 853.063999,1535.744 853.352,1535.744 C853.640001,1535.744 853.877332,1535.84 854.064,1536.032 C854.250668,1536.224 854.344,1536.45867 854.344,1536.736 C854.344,1537.01333 854.248001,1537.25067 854.056,1537.448 C853.863999,1537.64533 853.629335,1537.744 853.352,1537.744 L853.352,1537.744 Z M851,1543.744 C851.960005,1543.744 852.855996,1543.49867 853.688,1543.008 C854.498671,1542.53866 855.138664,1541.89867 855.608,1541.088 C856.098669,1540.256 856.344,1539.36 856.344,1538.4 C856.344,1537.44 856.098669,1536.544 855.608,1535.712 C855.138664,1534.90133 854.498671,1534.26134 853.688,1533.792 C852.855996,1533.30133 851.960005,1533.056 851,1533.056 C850.039995,1533.056 849.144004,1533.30133 848.312,1533.792 C847.501329,1534.26134 846.861336,1534.90133 846.392,1535.712 C845.901331,1536.544 845.656,1537.44 845.656,1538.4 C845.656,1539.36 845.901331,1540.256 846.392,1541.088 C846.861336,1541.89867 847.501329,1542.53866 848.312,1543.008 C849.144004,1543.49867 850.039995,1543.744 851,1543.744 L851,1543.744 Z M851,1531.744 C852.216006,1531.744 853.341328,1532.048 854.376,1532.656 C855.378672,1533.232 856.167997,1534.02133 856.744,1535.024 C857.352003,1536.05867 857.656,1537.18399 857.656,1538.4 C857.656,1539.61601 857.352003,1540.74133 856.744,1541.776 C856.167997,1542.77867 855.378672,1543.568 854.376,1544.144 C853.341328,1544.752 852.216006,1545.056 851,1545.056 C849.783994,1545.056 848.658672,1544.752 847.624,1544.144 C846.621328,1543.55733 845.832003,1542.76267 845.256,1541.76 C844.647997,1540.72533 844.344,1539.60534 844.344,1538.4 C844.344,1537.19466 844.647997,1536.07467 845.256,1535.04 C845.84267,1534.03733 846.637328,1533.24267 847.64,1532.656 C848.674672,1532.048 849.794661,1531.744 851,1531.744 L851,1531.744 Z" id="mood---materialicons-regular-copy"></path>
        </g>
    </g>
</svg>