<?xml version="1.0" encoding="utf-8"?>
<svg xmlns="http://www.w3.org/2000/svg"
	xmlns:xlink="http://www.w3.org/1999/xlink"
	width="56px" height="56px" viewBox="0 0 28 28">
<path fillRule="evenodd" d="M 14.29 26.11C 20.86 26.11 26.21 20.77 26.21 14.19 26.21 7.62 20.86 2.27 14.29 2.27 7.72 2.27 2.37 7.62 2.37 14.19 2.37 20.77 7.72 26.11 14.29 26.11M 14.29 27.61C 6.88 27.61 0.87 21.61 0.87 14.19 0.87 6.78 6.88 0.77 14.29 0.77 21.7 0.77 27.71 6.78 27.71 14.19 27.71 21.61 21.7 27.61 14.29 27.61 14.29 27.61 14.29 27.61 14.29 27.61Z" fill="rgb(219,87,99)"/><g><path fillRule="evenodd" d="M 4.81 22.87C 4.81 22.87 22.72 4.96 22.72 4.96" fill="rgb(255,255,255)"/><path fillRule="evenodd" d="M 5.87 23.93C 5.87 23.93 4.81 22.87 4.81 22.87 4.81 22.87 22.72 4.96 22.72 4.96 22.72 4.96 23.78 6.02 23.78 6.02 23.78 6.02 5.87 23.93 5.87 23.93" fill="rgb(219,87,99)"/></g><path fillRule="evenodd" d="M 18.03 14.64C 18.03 14.64 16.55 14.44 16.55 14.44 16.55 14.44 18.05 14.53 18.05 14.53 18.04 14.55 18.04 14.62 18.03 14.64M 15.58 15.53C 15.58 15.53 16.55 14.39 16.55 14.39 16.55 14.39 16.64 14.47 17.26 14.85 17.63 15.08 18.31 15.34 18.95 15.57 19.37 15.73 19.77 15.88 20.04 16 20.71 16.33 22.06 17.57 22.12 19.32 22.12 19.32 20.71 19.81 20.71 19.81 20.66 19.67 20.63 19.52 20.63 19.37 20.58 18.28 19.65 17.48 19.4 17.36 19.16 17.25 18.8 17.12 18.43 16.98 17.71 16.71 16.96 16.43 16.46 16.12 15.76 15.68 15.64 15.58 15.58 15.53M 20.93 18.76C 20.93 18.76 21.84 19.95 21.84 19.95 20.9 20.68 17.93 21.17 14.41 21.17 14.12 21.17 13.85 21.17 13.6 21.17 12.43 21.18 11.74 21.18 10.68 21.02 10.68 21.02 10.91 19.54 10.91 19.54 11.85 19.68 12.47 19.68 13.59 19.67 13.59 19.67 14.41 19.67 14.41 19.67 18.4 19.67 20.56 19.05 20.93 18.76M 8.15 18.44C 8.15 18.44 6.76 17.87 6.76 17.87 7.21 16.79 8.08 16.05 8.57 15.81 8.85 15.69 9.24 15.54 9.66 15.38 10 15.26 10.35 15.13 10.66 15 10.66 15 11.23 16.38 11.23 16.38 10.91 16.52 10.54 16.66 10.19 16.79 9.81 16.93 9.46 17.06 9.22 17.17 9.04 17.25 8.45 17.72 8.15 18.44M 13.2 12.06C 13.2 12.06 11.83 12.68 11.83 12.68 11.66 12.3 11.53 11.88 11.43 11.44 11.43 11.44 10.36 10.39 10.36 10.39 10.53 10.22 10.74 10.09 10.96 10.02 11.36 9.88 11.81 9.93 12.18 10.14 12.55 10.35 12.81 10.71 12.9 11.13 12.97 11.46 13.07 11.78 13.2 12.06M 12.09 10.27C 12.09 10.27 10.55 10.09 10.55 10.09 10.55 10.09 12.05 10.11 12.05 10.11 12.05 10.11 12.09 10.27 12.09 10.27M 10.6 10.91C 10.6 10.91 10.91 9.44 10.91 9.44 10.88 8.83 10.82 7.99 10.82 7.74 10.82 7.7 10.82 7.66 10.82 7.62 10.82 7.49 10.82 7.36 10.84 7.21 10.93 6.82 11.06 6.57 11.31 6.23 11.31 6.23 12.51 7.13 12.51 7.13 12.35 7.34 12.32 7.43 12.32 7.43 12.32 7.49 12.32 7.54 12.32 7.59 12.32 7.59 12.32 7.74 12.32 7.74 12.32 7.97 12.38 8.75 12.43 9.33 12.46 9.73 12.33 10.12 12.07 10.42 11.8 10.73 11.43 10.91 11.03 10.94 10.9 10.95 10.73 10.94 10.6 10.91M 11.51 7.05C 11.51 7.05 12.31 5.78 12.31 5.78 12.35 5.74 12.65 5.45 12.94 5.29 13.33 5.1 14.11 4.71 15.51 5.12 16.94 5.54 17.49 5.72 17.84 7.32 17.88 7.51 17.92 7.69 17.94 7.87 17.94 7.87 16.45 8.07 16.45 8.07 16.44 7.94 16.41 7.79 16.38 7.64 16.21 6.89 16.21 6.89 15.09 6.56 14.25 6.32 13.89 6.5 13.66 6.61 13.6 6.64 13.46 6.76 13.37 6.84 12.87 7.34 12.1 7.42 11.51 7.05M 15.58 15.53C 15.58 15.53 16.55 14.39 16.55 14.39 16.55 14.39 18.05 14.53 18.05 14.53 18.05 14.53 16.55 14.39 16.55 14.39 16.55 14.39 15.58 15.53 15.58 15.53 15.58 15.53 15.58 15.53 15.58 15.53ZM 21.84 19.95C 21.84 19.95 21.52 19.53 21.52 19.53 21.52 19.53 22.13 19.33 22.13 19.33 22.14 19.37 22.16 19.41 22.16 19.46 22.16 19.63 22.05 19.8 21.84 19.95 21.84 19.95 21.84 19.95 21.84 19.95ZM 20.71 19.81C 20.7 19.77 20.66 19.64 20.66 19.46 20.66 19.09 20.84 18.83 20.93 18.76 20.93 18.76 21.52 19.53 21.52 19.53 21.52 19.53 20.71 19.81 20.71 19.81 20.71 19.81 20.71 19.81 20.71 19.81ZM 11.34 11.46C 11.16 11.46 10.96 11.3 10.81 11.05 10.81 11.05 10.95 10.97 10.95 10.97 10.95 10.97 10.64 10.66 10.64 10.66 10.64 10.66 10.6 10.91 10.6 10.91 10.6 10.91 10.64 10.66 10.64 10.66 10.64 10.66 10.36 10.39 10.36 10.39 10.36 10.39 10.64 10.66 10.64 10.66 10.64 10.66 10.75 10.09 10.75 10.09 10.75 10.09 10.55 10.09 10.55 10.09 10.56 9.75 10.67 9.49 10.88 9.44 10.88 9.44 10.88 9.44 10.88 9.44 10.88 9.44 11.05 10.09 11.05 10.09 11.05 10.09 10.75 10.09 10.75 10.09 10.75 10.09 10.64 10.66 10.64 10.66 10.64 10.66 10.95 10.97 10.95 10.97 10.95 10.97 11.24 10.8 11.24 10.8 11.24 10.8 11.05 10.09 11.05 10.09 11.05 10.09 11.06 10.09 11.06 10.09 11.06 10.09 11.03 10 11.03 10 11.14 9.97 11.24 9.96 11.34 9.96 11.58 9.96 11.77 10.03 11.91 10.11 11.91 10.11 12.05 10.11 12.05 10.11 12.05 10.14 12.04 10.17 12.03 10.2 12.06 10.23 12.08 10.25 12.09 10.27 12.09 10.27 11.97 10.35 11.97 10.35 11.86 10.54 11.64 10.78 11.27 10.88 11.27 10.88 11.43 11.45 11.43 11.45 11.43 11.45 11.43 11.45 11.43 11.45 11.43 11.45 11.43 11.45 11.43 11.45 11.43 11.45 11.43 11.45 11.43 11.45 11.43 11.45 11.43 11.45 11.43 11.45 11.4 11.45 11.37 11.46 11.34 11.46 11.34 11.46 11.34 11.46 11.34 11.46ZM 12.09 7.23C 11.93 7.23 11.73 7.19 11.51 7.05 11.51 7.05 11.9 6.43 11.9 6.43 11.9 6.43 12.51 7.13 12.51 7.13 12.49 7.14 12.33 7.23 12.09 7.23 12.09 7.23 12.09 7.23 12.09 7.23ZM 11.9 6.43C 11.9 6.43 11.51 6 11.51 6 11.74 5.78 11.94 5.72 12.08 5.72 12.22 5.72 12.31 5.78 12.31 5.78 12.31 5.78 11.9 6.43 11.9 6.43 11.9 6.43 11.9 6.43 11.9 6.43Z" fill="rgb(219,87,99)"/></svg>