<?xml version="1.0" encoding="utf-8"?>
<svg xmlns="http://www.w3.org/2000/svg"
	xmlns:xlink="http://www.w3.org/1999/xlink"
	width="68px" height="52px" viewBox="0 0 34 26">
<g><path fillRule="evenodd" d="M 12.36 25.92C 5.58 25.92 0.09 24.76 0.09 23.2 0.09 23.2 0.09 23.19 0.09 23.19 0.09 23.19 0.09 23.19 0.09 23.19 0.09 20.3 2.34 18.24 3.41 17.73 4.49 17.22 6.84 16.51 7.82 15.9 8.79 15.29 9.11 15.04 9.11 15.04 9.11 15.04 9.12 15.12 9.14 15.24 9.14 15.24 9.14 13.95 9.14 13.95 8.45 13.05 7.92 11.85 7.63 10.5 7.63 10.5 7.62 10.51 7.61 10.51 7.15 10.64 6.58 10.02 6.34 9.14 6.1 8.26 6.29 7.45 6.75 7.33 6.78 7.32 6.81 7.34 6.84 7.33 6.77 6.36 6.67 5.03 6.67 4.63 6.67 3.97 6.57 3.41 7.44 2.24 8.31 1.08 9.03 1.53 9.03 1.53 9.03 1.53 9.59 0.97 10.1 0.72 10.62 0.46 11.84-0.17 14.1 0.49 16.35 1.15 17.22 1.43 17.79 3.97 18.11 5.43 18.06 6.6 17.96 7.33 17.98 7.33 18 7.32 18.01 7.33 18.48 7.45 18.66 8.26 18.42 9.14 18.19 10.01 17.64 10.61 17.18 10.52 16.88 11.94 16.31 13.18 15.56 14.1 15.56 14.1 15.56 15.12 15.56 15.12 15.57 15.07 15.57 15.04 15.57 15.04 15.57 15.04 15.89 15.29 16.87 15.9 17.84 16.51 20.2 17.22 21.27 17.73 22.32 18.23 24.47 20.21 24.57 22.98 24.6 23.05 24.62 23.13 24.62 23.2 24.62 24.76 19.13 25.92 12.36 25.92Z" fill="rgb(255,255,255)"/><path fillRule="evenodd" d="M 12.36 24.42C 18.42 24.42 22.09 23.5 23.07 22.91 22.92 20.83 21.22 19.36 20.63 19.09 20.26 18.91 19.66 18.69 19.02 18.45 17.92 18.05 16.79 17.62 16.07 17.17 15.64 16.91 15.33 16.7 15.1 16.55 14.5 16.35 14.06 15.78 14.06 15.12 14.06 15.12 14.06 14.1 14.06 14.1 14.06 13.76 14.18 13.42 14.4 13.15 15 12.41 15.46 11.39 15.71 10.2 15.84 9.61 16.3 9.17 16.86 9.05 16.9 8.98 16.94 8.88 16.98 8.75 17 8.66 17.02 8.57 17.02 8.5 16.63 8.18 16.4 7.67 16.47 7.13 16.56 6.52 16.6 5.53 16.32 4.29 15.95 2.59 15.77 2.54 13.68 1.93 13.16 1.78 12.67 1.7 12.23 1.7 11.5 1.7 11.07 1.91 10.77 2.06 10.58 2.16 10.25 2.43 10.08 2.6 9.79 2.88 9.41 3.03 9.03 3.03 8.93 3.03 8.84 3.02 8.75 3.01 8.72 3.04 8.68 3.08 8.64 3.14 8.16 3.79 8.16 3.97 8.17 4.42 8.17 4.42 8.17 4.63 8.17 4.63 8.17 4.73 8.18 5.21 8.34 7.22 8.38 7.75 8.14 8.23 7.75 8.53 7.75 8.59 7.77 8.67 7.79 8.75 7.82 8.86 7.86 8.95 7.89 9.02 8.06 9.05 8.23 9.11 8.38 9.2 8.75 9.42 9.01 9.77 9.1 10.19 9.34 11.31 9.77 12.3 10.33 13.04 10.53 13.3 10.64 13.62 10.64 13.95 10.64 13.95 10.64 15.24 10.64 15.24 10.64 16.01 10.06 16.65 9.3 16.73 9.11 16.86 8.89 17 8.61 17.17 7.9 17.62 6.76 18.05 5.66 18.45 5.02 18.69 4.42 18.91 4.05 19.09 3.45 19.37 1.76 20.83 1.6 22.88 2.51 23.48 6.2 24.42 12.36 24.42M 12.36 25.92C 5.58 25.92 0.09 24.76 0.09 23.2 0.09 23.2 0.09 23.19 0.09 23.19 0.09 23.19 0.09 23.19 0.09 23.19 0.09 20.3 2.34 18.24 3.41 17.73 4.49 17.22 6.84 16.51 7.82 15.9 8.79 15.29 9.11 15.04 9.11 15.04 9.11 15.04 9.12 15.12 9.14 15.24 9.14 15.24 9.14 13.95 9.14 13.95 8.45 13.05 7.92 11.86 7.63 10.5 7.63 10.5 7.62 10.51 7.61 10.51 7.57 10.53 7.53 10.53 7.49 10.53 7.05 10.53 6.56 9.95 6.34 9.14 6.1 8.26 6.29 7.45 6.75 7.33 6.76 7.33 6.76 7.32 6.77 7.32 6.79 7.32 6.81 7.33 6.83 7.33 6.84 7.33 6.84 7.33 6.84 7.33 6.77 6.36 6.67 5.03 6.67 4.63 6.67 3.97 6.57 3.41 7.44 2.24 7.93 1.59 8.37 1.44 8.66 1.44 8.89 1.44 9.03 1.53 9.03 1.53 9.03 1.53 9.59 0.97 10.1 0.72 10.45 0.55 11.13 0.2 12.23 0.2 12.75 0.2 13.37 0.28 14.1 0.49 16.35 1.15 17.22 1.43 17.79 3.97 18.11 5.43 18.06 6.6 17.96 7.33 17.96 7.33 17.96 7.33 17.97 7.33 17.98 7.33 17.99 7.33 18 7.33 18.01 7.33 18.01 7.33 18.01 7.33 18.48 7.45 18.66 8.26 18.42 9.14 18.21 9.95 17.71 10.53 17.27 10.53 17.24 10.53 17.21 10.52 17.18 10.52 16.88 11.94 16.31 13.18 15.56 14.1 15.56 14.1 15.56 15.12 15.56 15.12 15.57 15.07 15.57 15.04 15.57 15.04 15.57 15.04 15.89 15.29 16.87 15.9 17.84 16.51 20.2 17.22 21.27 17.73 22.32 18.23 24.47 20.21 24.57 22.98 24.6 23.05 24.62 23.13 24.62 23.2 24.62 24.76 19.13 25.92 12.36 25.92 12.36 25.92 12.36 25.92 12.36 25.92Z" fill="rgb(219,87,99)"/></g><g><path fillRule="evenodd" d="M 18.7 14.08C 19.51 13.7 20.45 13.54 21.19 13.08 21.92 12.62 22.16 12.43 22.16 12.43 22.16 12.43 22.17 12.49 22.19 12.58 22.19 12.58 22.19 11.61 22.19 11.61 21.66 10.92 21.26 10.02 21.05 9 21.04 9 21.04 9.01 21.03 9.01 20.68 9.1 20.25 8.64 20.07 7.97 19.89 7.31 20.03 6.69 20.38 6.6 20.4 6.59 20.42 6.6 20.45 6.6 20.39 5.87 20.32 4.86 20.32 4.56 20.32 4.06 20.24 3.64 20.9 2.75 21.56 1.87 22.1 2.22 22.1 2.22 22.1 2.22 22.53 1.79 22.91 1.6 23.3 1.41 24.23 0.93 25.93 1.43 27.64 1.93 28.3 2.14 28.72 4.06 28.97 5.17 28.93 6.04 28.85 6.6 28.87 6.6 28.88 6.59 28.89 6.6 29.25 6.69 29.38 7.31 29.21 7.97 29.03 8.62 28.61 9.08 28.26 9.01 28.03 10.08 27.61 11.02 27.04 11.72 27.04 11.72 27.04 12.49 27.04 12.49 27.05 12.45 27.05 12.43 27.05 12.43 27.05 12.43 27.29 12.62 28.03 13.08 28.76 13.54 30.54 14.08 31.36 14.46 32.15 14.84 33.77 16.34 33.85 18.43 33.87 18.49 33.89 18.54 33.89 18.6 33.89 19.61 30.83 20.4 26.72 20.6" fill="rgb(255,255,255)"/><path fillRule="evenodd" d="M 19.34 15.44C 19.34 15.44 18.7 14.08 18.7 14.08 19.04 13.92 19.4 13.8 19.76 13.68 20.26 13.51 20.76 13.35 21.19 13.08 21.92 12.62 22.16 12.43 22.16 12.43 22.16 12.43 23.1 13.6 23.1 13.6 23.03 13.66 22.73 13.88 21.98 14.35 21.4 14.72 20.78 14.92 20.24 15.1 19.91 15.21 19.6 15.32 19.34 15.44M 20.67 12.55C 20.67 12.55 22.16 12.43 22.16 12.43 22.16 12.43 22.17 12.49 22.19 12.58 22.19 12.58 22.19 11.61 22.19 11.61 21.66 10.92 21.26 10.02 21.05 9 21.05 9 19.97 7.95 19.97 7.95 20.14 7.78 20.35 7.65 20.58 7.57 20.98 7.44 21.42 7.48 21.79 7.7 22.16 7.91 22.42 8.27 22.51 8.69 22.68 9.48 22.98 10.18 23.38 10.7 23.58 10.96 23.69 11.28 23.69 11.61 23.69 11.61 23.69 12.58 23.69 12.58 23.69 13.36 23.09 14.01 22.32 14.08 21.55 14.15 20.85 13.61 20.71 12.85 20.68 12.67 20.67 12.55 20.67 12.55M 21.59 7.76C 21.59 7.76 20.4 8.67 20.4 8.67 20.26 8.49 20.14 8.25 20.07 7.97 20 7.7 19.98 7.44 20 7.21 20 7.21 21.49 7.38 21.49 7.38 21.49 7.4 21.49 7.48 21.52 7.58 21.55 7.69 21.58 7.75 21.59 7.76M 20.11 8.07C 20.11 8.07 20.42 6.6 20.42 6.6 20.39 5.87 20.32 4.86 20.32 4.56 20.32 4.51 20.32 4.46 20.32 4.42 20.31 3.97 20.3 3.55 20.9 2.75 21.02 2.6 21.13 2.48 21.24 2.39 21.24 2.39 22.19 3.55 22.19 3.55 22.19 3.55 22.16 3.58 22.1 3.65 21.81 4.04 21.81 4.11 21.82 4.39 21.82 4.39 21.82 4.56 21.82 4.56 21.82 4.61 21.82 4.94 21.94 6.49 21.97 6.89 21.84 7.28 21.58 7.59 21.32 7.89 20.95 8.07 20.55 8.1 20.41 8.11 20.24 8.1 20.11 8.07M 21.29 3.48C 21.29 3.48 22.1 2.22 22.1 2.22 22.14 2.17 22.54 1.79 22.91 1.6 23.33 1.4 24.25 0.94 25.93 1.43 27.64 1.93 28.3 2.14 28.72 4.06 28.97 5.17 28.93 6.04 28.85 6.6 28.85 6.6 29.15 8.07 29.15 8.07 28.99 8.1 28.8 8.11 28.63 8.08 27.82 7.96 27.26 7.21 27.37 6.4 27.43 5.97 27.46 5.27 27.26 4.38 27.02 3.31 27.02 3.31 25.51 2.87 24.39 2.54 23.87 2.8 23.58 2.95 23.49 2.99 23.29 3.15 23.16 3.28 22.66 3.77 21.89 3.86 21.29 3.48M 27.78 7.38C 27.78 7.38 29.27 7.21 29.27 7.21 29.3 7.44 29.28 7.7 29.2 7.97 29.13 8.24 29.02 8.48 28.88 8.66 28.88 8.66 27.68 7.76 27.68 7.76 27.69 7.75 27.73 7.68 27.76 7.58 27.78 7.48 27.79 7.4 27.78 7.38M 28.56 7.54C 28.56 7.54 28.26 9.01 28.26 9.01 28.03 10.08 27.61 11.02 27.04 11.72 27.04 11.72 27.04 12.49 27.04 12.49 27.04 12.49 28.54 12.57 28.54 12.57 28.54 12.59 28.53 12.67 28.53 12.69 28.43 13.47 27.73 14.04 26.94 13.99 26.16 13.93 25.54 13.28 25.54 12.49 25.54 12.49 25.54 11.72 25.54 11.72 25.54 11.37 25.66 11.04 25.88 10.77 26.29 10.26 26.62 9.52 26.8 8.7 26.97 7.89 27.76 7.38 28.56 7.54M 26.12 13.6C 26.12 13.6 27.05 12.43 27.05 12.43 27.05 12.43 27.29 12.62 28.03 13.08 28.47 13.36 29.29 13.66 30.05 13.95 30.56 14.13 31.03 14.31 31.36 14.46 32.15 14.84 33.77 16.34 33.85 18.43 33.85 18.43 32.44 18.93 32.44 18.93 32.39 18.78 32.36 18.64 32.36 18.49 32.3 17.02 31.06 15.98 30.72 15.82 30.42 15.68 29.99 15.52 29.53 15.35 28.68 15.04 27.8 14.71 27.23 14.35 26.48 13.88 26.19 13.66 26.12 13.6M 32.61 18C 32.61 18 33.59 19.14 33.59 19.14 32.72 19.88 30.07 20.44 26.72 20.6 26.72 20.6 26.64 19.11 26.64 19.11 30.4 18.92 32.29 18.28 32.61 18M 23.1 13.6C 23.1 13.6 22.16 12.43 22.16 12.43 22.16 12.43 20.67 12.55 20.67 12.55 20.67 12.55 22.16 12.43 22.16 12.43 22.16 12.43 23.1 13.6 23.1 13.6 23.1 13.6 23.1 13.6 23.1 13.6ZM 20.94 9.02C 20.75 9.02 20.56 8.89 20.4 8.67 20.4 8.67 20.57 8.54 20.57 8.54 20.57 8.54 19.97 7.95 19.97 7.95 19.97 7.95 20.57 8.54 20.57 8.54 20.57 8.54 20.86 8.32 20.86 8.32 20.86 8.32 21.04 9 21.04 9 21.04 9 21.04 9 21.04 9 21.04 9 21.04 9 21.04 9 21.04 9 21.04 9 21.04 9 21.04 9 21.04 9 21.04 9 21 9.01 20.97 9.02 20.94 9.02 20.94 9.02 20.94 9.02 20.94 9.02ZM 20.86 8.32C 20.86 8.32 20.78 8.04 20.78 8.04 20.77 8.04 20.77 8.05 20.76 8.05 20.76 8.05 20.56 7.28 20.56 7.28 20.56 7.28 21.49 7.38 21.49 7.38 21.48 7.44 21.45 7.53 21.39 7.62 21.49 7.66 21.56 7.72 21.59 7.76 21.59 7.76 20.86 8.32 20.86 8.32 20.86 8.32 20.86 8.32 20.86 8.32ZM 20.11 8.07C 20.11 8.07 20.26 7.24 20.26 7.24 20.26 7.24 20 7.21 20 7.21 20.04 6.89 20.17 6.65 20.38 6.6 20.38 6.6 20.38 6.6 20.38 6.6 20.38 6.6 20.56 7.28 20.56 7.28 20.56 7.28 20.26 7.24 20.26 7.24 20.26 7.24 20.11 8.07 20.11 8.07 20.11 8.07 20.11 8.07 20.11 8.07ZM 21.82 3.65C 21.67 3.65 21.5 3.61 21.29 3.48 21.29 3.48 21.66 2.91 21.66 2.91 21.66 2.91 22.19 3.55 22.19 3.55 22.19 3.55 22.05 3.65 21.82 3.65 21.82 3.65 21.82 3.65 21.82 3.65ZM 21.66 2.91C 21.66 2.91 21.24 2.39 21.24 2.39 21.47 2.2 21.67 2.15 21.82 2.15 22 2.15 22.1 2.22 22.1 2.22 22.1 2.22 21.66 2.91 21.66 2.91 21.66 2.91 21.66 2.91 21.66 2.91ZM 29.15 8.07C 29.15 8.07 29 7.24 29 7.24 29 7.24 28.71 7.28 28.71 7.28 28.71 7.28 28.87 6.6 28.87 6.6 28.87 6.6 28.87 6.6 28.87 6.6 29.1 6.65 29.24 6.89 29.27 7.21 29.27 7.21 29 7.24 29 7.24 29 7.24 29.15 8.07 29.15 8.07 29.15 8.07 29.15 8.07 29.15 8.07ZM 28.34 9.02C 28.31 9.02 28.29 9.01 28.26 9.01 28.26 9.01 28.41 8.31 28.41 8.31 28.41 8.31 28.88 8.66 28.88 8.66 28.71 8.88 28.52 9.02 28.34 9.02 28.34 9.02 28.34 9.02 28.34 9.02ZM 28.41 8.31C 28.41 8.31 27.68 7.76 27.68 7.76 27.71 7.72 27.78 7.67 27.89 7.62 27.82 7.53 27.79 7.44 27.78 7.38 27.78 7.38 28.71 7.28 28.71 7.28 28.71 7.28 28.52 8.05 28.52 8.05 28.5 8.04 28.48 8.04 28.46 8.03 28.46 8.03 28.41 8.31 28.41 8.31 28.41 8.31 28.41 8.31 28.41 8.31ZM 26.12 13.6C 26.12 13.6 27.05 12.43 27.05 12.43 27.05 12.43 28.54 12.57 28.54 12.57 28.54 12.57 27.05 12.43 27.05 12.43 27.05 12.43 26.12 13.6 26.12 13.6 26.12 13.6 26.12 13.6 26.12 13.6ZM 33.59 19.14C 33.59 19.14 33.19 18.67 33.19 18.67 33.19 18.67 33.86 18.45 33.86 18.45 33.88 18.5 33.89 18.55 33.89 18.6 33.89 18.79 33.79 18.97 33.59 19.14 33.59 19.14 33.59 19.14 33.59 19.14ZM 32.44 18.93C 32.43 18.91 32.39 18.78 32.39 18.6 32.39 18.27 32.56 18.05 32.61 18 32.61 18 33.19 18.67 33.19 18.67 33.19 18.67 32.44 18.93 32.44 18.93 32.44 18.93 32.44 18.93 32.44 18.93Z" fill="rgb(219,87,99)"/></g></svg>