<?xml version="1.0" encoding="utf-8"?>
<svg xmlns="http://www.w3.org/2000/svg"
	xmlns:xlink="http://www.w3.org/1999/xlink"
	width="58px" height="54px" viewBox="0 0 29 27">
<path fillRule="evenodd" d="M 9.93 26.03C 9.93 26.03 9.93 24.53 9.93 24.53 9.93 24.53 19.01 24.53 19.01 24.53 19.01 24.53 19.01 26.03 19.01 26.03 19.01 26.03 9.93 26.03 9.93 26.03" fill="rgb(219,87,99)"/><path fillRule="evenodd" d="M 15.23 25.5C 15.23 25.5 13.73 25.5 13.73 25.5 13.73 25.5 13.73 0.74 13.73 0.74 13.73 0.74 15.23 0.74 15.23 0.74 15.23 0.74 15.23 25.5 15.23 25.5" fill="rgb(219,87,99)"/><g><path fillRule="evenodd" d="M 2.52 8.89C 2.52 8.89 25.87 2.64 25.87 2.64" fill="rgb(255,255,255)"/><path fillRule="evenodd" d="M 2.91 10.34C 2.91 10.34 2.52 8.89 2.52 8.89 2.52 8.89 25.87 2.64 25.87 2.64 25.87 2.64 26.26 4.09 26.26 4.09 26.26 4.09 2.91 10.34 2.91 10.34" fill="rgb(219,87,99)"/></g><g><path fillRule="evenodd" d="M 11.74 17.23C 11.74 20.24 9.29 22.96 6.28 22.96 3.27 22.96 0.83 20.24 0.83 17.23 5.02 17.23 7.21 17.23 11.74 17.23Z" fill="rgb(255,255,255)"/><path fillRule="evenodd" d="M 6.28 21.46C 7.9 21.46 9.37 20.29 9.96 18.73 9.96 18.73 2.61 18.73 2.61 18.73 3.2 20.29 4.67 21.46 6.28 21.46M 6.28 22.96C 3.27 22.96 0.83 20.24 0.83 17.23 5.02 17.23 7.21 17.23 11.74 17.23 11.74 20.24 9.29 22.96 6.28 22.96 6.28 22.96 6.28 22.96 6.28 22.96Z" fill="rgb(219,87,99)"/></g><g><path fillRule="evenodd" d="M 1.09 17.19C 1.09 17.19 6.24 8.16 6.24 8.16 6.24 8.16 11.45 17.33 11.45 17.33" fill="rgb(255,255,255)"/><path fillRule="evenodd" d="M 2.4 17.93C 2.4 17.93 1.09 17.19 1.09 17.19 1.09 17.19 6.24 8.16 6.24 8.16 6.24 8.16 7.54 8.91 7.54 8.91 7.54 8.91 2.4 17.93 2.4 17.93M 4.93 8.91C 4.93 8.91 6.24 8.16 6.24 8.16 6.24 8.16 11.45 17.33 11.45 17.33 11.45 17.33 10.15 18.07 10.15 18.07 10.15 18.07 4.93 8.91 4.93 8.91M 7.54 8.91C 7.54 8.91 6.24 8.16 6.24 8.16 6.24 8.16 4.93 8.91 4.93 8.91 4.93 8.91 6.24 8.16 6.24 8.16 6.24 8.16 7.54 8.91 7.54 8.91 7.54 8.91 7.54 8.91 7.54 8.91Z" fill="rgb(219,87,99)"/></g><g><path fillRule="evenodd" d="M 28.74 12.23C 28.74 15.24 26.29 17.96 23.28 17.96 20.27 17.96 17.83 15.24 17.83 12.23 22.02 12.23 24.21 12.23 28.74 12.23Z" fill="rgb(255,255,255)"/><path fillRule="evenodd" d="M 23.28 16.46C 24.9 16.46 26.37 15.29 26.96 13.73 26.96 13.73 19.61 13.73 19.61 13.73 20.2 15.29 21.67 16.46 23.28 16.46M 23.28 17.96C 20.27 17.96 17.83 15.24 17.83 12.23 22.02 12.23 24.21 12.23 28.73 12.23 28.73 15.24 26.29 17.96 23.28 17.96 23.28 17.96 23.28 17.96 23.28 17.96Z" fill="rgb(219,87,99)"/></g><g><path fillRule="evenodd" d="M 18.09 12.19C 18.09 12.19 23.24 3.16 23.24 3.16 23.24 3.16 28.45 12.33 28.45 12.33" fill="rgb(255,255,255)"/><path fillRule="evenodd" d="M 19.4 12.93C 19.4 12.93 18.09 12.19 18.09 12.19 18.09 12.19 23.24 3.16 23.24 3.16 23.24 3.16 24.54 3.91 24.54 3.91 24.54 3.91 19.4 12.93 19.4 12.93M 21.93 3.91C 21.93 3.91 23.24 3.16 23.24 3.16 23.24 3.16 28.45 12.33 28.45 12.33 28.45 12.33 27.15 13.07 27.15 13.07 27.15 13.07 21.93 3.91 21.93 3.91M 24.54 3.91C 24.54 3.91 23.24 3.16 23.24 3.16 23.24 3.16 21.93 3.91 21.93 3.91 21.93 3.91 23.24 3.16 23.24 3.16 23.24 3.16 24.54 3.91 24.54 3.91 24.54 3.91 24.54 3.91 24.54 3.91Z" fill="rgb(219,87,99)"/></g><g><circle cx="14.50" cy="6.50" r="3.50" fill="rgb(255,255,255)"/><path fillRule="evenodd" d="M 14.42 8.36C 15.48 8.36 16.35 7.49 16.35 6.43 16.35 5.37 15.48 4.5 14.42 4.5 13.36 4.5 12.49 5.37 12.49 6.43 12.49 7.49 13.36 8.36 14.42 8.36M 14.42 9.86C 12.53 9.86 10.99 8.33 10.99 6.43 10.99 4.54 12.53 3 14.42 3 16.31 3 17.85 4.54 17.85 6.43 17.85 8.33 16.31 9.86 14.42 9.86 14.42 9.86 14.42 9.86 14.42 9.86Z" fill="rgb(219,87,99)"/></g></svg>
