<?xml version="1.0" encoding="utf-8"?>
<!-- Generator: Adobe Illustrator 19.2.0, SVG Export Plug-In . SVG Version: 6.00 Build 0)  -->
<svg version="1.1" id="Layer_1" xmlns="http://www.w3.org/2000/svg" xmlns:xlink="http://www.w3.org/1999/xlink" x="0px" y="0px"
	 viewBox="0 0 18.8 18.6" style="enable-background:new 0 0 18.8 18.6;" xml:space="preserve">
<style type="text/css">
	.st0{fill:#C1C1C1;}
	.st1{fill:#FFFFFF;}
</style>
<g>
	<g>
		<circle class="st0" cx="9.4" cy="9.4" r="9"/>
	</g>
	<g>
		<g>
			<path class="st1" d="M8.3,13.1c-0.1,0-0.3,0-0.4-0.1L4.5,9.5C4.3,9.3,4.3,9,4.5,8.8c0.2-0.2,0.5-0.2,0.7,0l3.4,3.5
				c0.2,0.2,0.2,0.5,0,0.7C8.5,13,8.4,13.1,8.3,13.1z"/>
		</g>
		<g>
			<path class="st1" d="M8.3,13.1c-0.1,0-0.2,0-0.3-0.1c-0.2-0.2-0.2-0.5-0.1-0.7l5.4-6.4c0.2-0.2,0.5-0.2,0.7-0.1s0.2,0.5,0.1,0.7
				l-5.4,6.4C8.6,13.1,8.5,13.1,8.3,13.1z"/>
		</g>
	</g>
</g>
</svg>
