<?xml version="1.0" encoding="utf-8"?>
<!-- Generator: Adobe Illustrator 19.2.0, SVG Export Plug-In . SVG Version: 6.00 Build 0)  -->
<svg version="1.1" id="Layer_1" xmlns="http://www.w3.org/2000/svg" xmlns:xlink="http://www.w3.org/1999/xlink" x="0px" y="0px"
	 viewBox="0 0 24.4 24.3" style="enable-background:new 0 0 24.4 24.3;" xml:space="preserve">
<style type="text/css">
	.st0{opacity:0.2;}
	.st1{fill:#52B21F;}
	.st2{fill:#FFFFFF;}
</style>
<g>
	<g class="st0">
		<circle class="st1" cx="12.2" cy="12.2" r="11.9"/>
	</g>
	<g class="st0">
		<circle class="st1" cx="12.2" cy="12.2" r="11"/>
	</g>
	<g class="st0">
		<circle class="st1" cx="12.2" cy="12.2" r="10"/>
	</g>
	<g>
		<circle class="st1" cx="12.2" cy="12.2" r="9"/>
	</g>
	<g>
		<g>
			<path class="st2" d="M10.9,16c-0.1,0-0.3,0-0.4-0.1l-3.4-3.5c-0.2-0.2-0.2-0.5,0-0.7c0.2-0.2,0.5-0.2,0.7,0l3.4,3.5
				c0.2,0.2,0.2,0.5,0,0.7C11.2,15.9,11.1,16,10.9,16z"/>
		</g>
		<g>
			<path class="st2" d="M11,16c-0.1,0-0.2,0-0.3-0.1c-0.2-0.2-0.2-0.5-0.1-0.7L16,8.8c0.2-0.2,0.5-0.2,0.7-0.1
				c0.2,0.2,0.2,0.5,0.1,0.7l-5.4,6.4C11.3,15.9,11.1,16,11,16z"/>
		</g>
	</g>
</g>
</svg>
