<?xml version="1.0" encoding="utf-8"?>
<!-- Generator: Adobe Illustrator 19.2.0, SVG Export Plug-In . SVG Version: 6.00 Build 0)  -->
<svg version="1.1" id="Layer_1" xmlns="http://www.w3.org/2000/svg" xmlns:xlink="http://www.w3.org/1999/xlink" x="0px" y="0px"
	 viewBox="0 0 18.8 18.6" style="enable-background:new 0 0 18.8 18.6;" xml:space="preserve">
<style type="text/css">
	.st0{fill:#DB0000;}
	.st1{fill:#FFFFFF;}
</style>
<g>
	<g>
		<circle class="st0" cx="9.4" cy="9.4" r="9"/>
	</g>
	<g>
		<g>
			<path class="st1" d="M12.8,13.1c-0.1,0-0.3,0-0.4-0.1L5.9,6.4c-0.2-0.2-0.2-0.5,0-0.7s0.5-0.2,0.7,0l6.6,6.6
				c0.2,0.2,0.2,0.5,0,0.7C13.1,13.1,13,13.1,12.8,13.1z"/>
		</g>
		<g>
			<path class="st1" d="M6.4,13.3c-0.1,0-0.2,0-0.3-0.1c-0.2-0.2-0.2-0.5,0-0.7l6.3-6.9c0.2-0.2,0.5-0.2,0.7,0
				c0.2,0.2,0.2,0.5,0,0.7l-6.3,6.9C6.6,13.2,6.5,13.3,6.4,13.3z"/>
		</g>
	</g>
</g>
</svg>
